<svg width="64" height="64" viewBox="0 0 64 64" fill="none" xmlns="http://www.w3.org/2000/svg">
<path d="M32 51.6301C43.2445 51.6301 52.36 42.5146 52.36 31.2701C52.36 20.0256 43.2445 10.9101 32 10.9101C20.7555 10.9101 11.64 20.0256 11.64 31.2701C11.64 42.5146 20.7555 51.6301 32 51.6301Z" stroke="#FE572E" stroke-width="3"/>
<path d="M31.36 16.5801V31.9901L38.76 37.6601" stroke="#FE572E" stroke-width="3" stroke-linecap="round"/>
<path d="M13.64 53.4301L18.25 46.3001" stroke="#FE572E" stroke-width="3" stroke-linecap="round"/>
<path d="M45.84 46.3001L50.45 53.4301" stroke="#FE572E" stroke-width="3" stroke-linecap="round"/>
<path d="M9.15005 19.4001C7.97722 18.1958 7.32092 16.5812 7.32092 14.9001C7.32092 13.2191 7.97722 11.6045 9.15005 10.4001C9.71974 9.81165 10.4019 9.3437 11.1561 9.02412C11.9103 8.70454 12.721 8.53986 13.54 8.53986C14.3591 8.53986 15.1698 8.70454 15.924 9.02412C16.6781 9.3437 17.3604 9.81165 17.93 10.4001L9.15005 19.4001ZM54.87 19.4001C56.0429 18.1958 56.6992 16.5812 56.6992 14.9001C56.6992 13.2191 56.0429 11.6045 54.87 10.4001C54.3004 9.81165 53.6181 9.3437 52.864 9.02412C52.1098 8.70454 51.2991 8.53986 50.48 8.53986C49.661 8.53986 48.8503 8.70454 48.0961 9.02412C47.3419 9.3437 46.6597 9.81165 46.09 10.4001L54.87 19.4001Z" stroke="#FE572E" stroke-width="3"/>
</svg>
