<svg width="65" height="64" viewBox="0 0 65 64" fill="none" xmlns="http://www.w3.org/2000/svg">
<path d="M5.28662 9.96002H16.0066L22.3766 37.85H50.3566L56.8366 16.35L17.3366 15.79" stroke="#FE572E" stroke-width="3"/>
<path d="M52.3966 44.35H22.3366C21.9033 44.3595 21.4725 44.2812 21.0702 44.1198C20.6679 43.9583 20.3025 43.7171 19.996 43.4106C19.6895 43.1041 19.4483 42.7387 19.2868 42.3364C19.1254 41.9341 19.0471 41.5033 19.0566 41.07C19.0566 37.85 22.3766 37.85 22.3766 37.85" stroke="#FE572E" stroke-width="3"/>
<path d="M25.6166 55.14C27.5662 55.14 29.1466 53.5596 29.1466 51.61C29.1466 49.6605 27.5662 48.08 25.6166 48.08C23.667 48.08 22.0866 49.6605 22.0866 51.61C22.0866 53.5596 23.667 55.14 25.6166 55.14Z" stroke="#FE572E" stroke-width="3"/>
<path d="M46.7066 55.14C48.6562 55.14 50.2366 53.5596 50.2366 51.61C50.2366 49.6605 48.6562 48.08 46.7066 48.08C44.7571 48.08 43.1766 49.6605 43.1766 51.61C43.1766 53.5596 44.7571 55.14 46.7066 55.14Z" stroke="#FE572E" stroke-width="3"/>
</svg>
