<svg version="1.1" id="Layer_1" xmlns="http://www.w3.org/2000/svg" xmlns:xlink="http://www.w3.org/1999/xlink" x="0px" y="0px"
	 width="100%" viewBox="0 0 98 104" enable-background="new 0 0 98 104" xml:space="preserve">
<path fill="#FEFFFE" opacity="1.000000" stroke="none" 
	d="
M58.000000,105.000000 
	C38.666672,105.000000 19.833340,105.000000 1.000008,105.000000 
	C1.000005,70.333344 1.000005,35.666687 1.000003,1.000021 
	C33.666653,1.000014 66.333305,1.000014 98.999969,1.000007 
	C98.999977,35.666645 98.999977,70.333290 98.999985,104.999969 
	C85.500000,105.000000 72.000000,105.000000 58.000000,105.000000 
M83.193077,87.491371 
	C83.131523,87.327187 83.069977,87.163010 83.249619,86.351280 
	C83.178307,85.902359 83.106995,85.453445 83.278946,84.274818 
	C83.200417,83.521881 83.121887,82.768944 83.176842,82.202858 
	C83.176842,82.202858 83.390366,82.118378 83.729637,81.890465 
	C83.605576,81.559502 83.481514,81.228546 83.291794,80.097466 
	C83.312408,78.760307 83.333015,77.423157 83.779984,75.596870 
	C83.635056,74.369324 83.490135,73.141785 83.280373,71.025970 
	C83.255798,68.337143 83.231232,65.648315 83.776192,62.463547 
	C83.513725,60.276737 83.251259,58.089931 82.502426,55.332180 
	C80.492096,54.889347 78.499344,54.211189 76.467270,54.059399 
	C73.495155,53.837391 70.494843,53.992886 67.344933,53.065277 
	C67.244896,44.373890 67.144859,35.682503 66.944496,26.317936 
	C66.295204,26.276966 65.645905,26.235998 64.114815,26.079193 
	C61.744659,26.125767 59.374500,26.172338 56.503506,26.051586 
	C56.334923,26.102205 56.166344,26.152822 55.337883,26.077488 
	C54.894058,26.120106 54.450230,26.162722 53.502605,26.051168 
	C53.334724,26.102734 53.166847,26.154297 52.098339,26.077501 
	C49.065807,26.119623 46.033272,26.161747 42.379337,26.027004 
	C41.972626,26.359312 41.565918,26.691620 41.013653,27.673031 
	C40.982685,28.115170 40.951714,28.557308 40.221626,29.136223 
	C40.043137,32.289452 39.849010,35.442169 39.746613,38.597866 
	C39.742744,38.717075 40.627689,38.865124 41.310196,39.418438 
	C41.357025,39.885010 41.403851,40.351585 41.099792,41.453289 
	C41.218857,42.391960 41.337917,43.330627 41.372856,44.677124 
	C41.372856,44.677124 41.113251,45.002701 40.369625,44.986336 
	C39.265217,44.094425 38.160809,43.202511 36.729752,42.046795 
	C33.597935,42.856705 29.796671,43.839741 25.161680,44.972244 
	C22.777399,45.330593 20.393120,45.688942 17.550329,45.501015 
	C17.025652,46.244724 16.102917,46.959503 16.046385,47.737244 
	C15.822085,50.823063 15.868522,53.928558 15.057725,57.123528 
	C12.860683,57.605389 10.663641,58.087246 8.131472,58.642609 
	C9.942854,63.249676 16.555187,66.531952 11.145768,72.996712 
	C13.105463,72.570740 14.478246,72.272346 15.970927,72.565231 
	C16.272211,73.037575 16.573496,73.509918 16.782793,74.629234 
	C16.748549,75.063385 16.714304,75.497536 16.362808,76.145470 
	C16.488930,76.453148 16.615053,76.760818 16.848726,77.553009 
	C16.848726,77.553009 17.041765,78.010231 16.854319,78.498428 
	C16.909657,78.663734 16.964993,78.829033 16.817390,79.668655 
	C16.779182,80.136253 16.740976,80.603859 16.247801,81.505783 
	C16.126316,82.335884 16.004831,83.165985 15.167963,83.834839 
	C14.470008,82.308037 13.772053,80.781235 13.081580,79.270798 
	C7.914987,80.668297 6.836494,82.477753 9.874274,86.229156 
	C11.259113,87.939323 14.502317,88.144638 17.847681,88.989052 
	C22.892128,88.940628 27.936575,88.892212 33.522034,89.039497 
	C34.070835,89.027962 34.619633,89.016418 35.807243,89.075783 
	C37.692234,88.719864 39.577225,88.363937 41.658421,88.575294 
	C41.755543,88.750305 41.852665,88.925308 42.554741,89.686348 
	C46.675766,89.792633 50.801624,90.071495 54.916435,89.956146 
	C58.943657,89.843246 62.959614,89.328636 67.303818,88.523285 
	C67.381287,88.350502 67.458755,88.177727 68.010513,88.029205 
	C68.326820,88.012772 68.643318,88.007141 69.362274,88.546768 
	C70.614655,88.339432 71.867027,88.132088 73.888046,87.996925 
	C75.550186,87.549461 77.212334,87.101997 78.890038,86.582092 
	C78.890038,86.582092 78.944778,86.615463 78.933983,87.288223 
	C79.958931,87.491974 80.983871,87.695724 82.478249,88.140778 
	C82.652237,88.114655 82.826218,88.088531 83.039009,88.429726 
	C83.191032,88.326134 83.343063,88.222542 83.495087,88.118950 
	C83.352982,88.080040 83.210869,88.041130 83.193077,87.491371 
z"/>
<path fill="#15346A" opacity="1.000000" stroke="none" 
	d="
M17.041767,78.010231 
	C17.041765,78.010231 16.848726,77.553009 16.883862,77.020920 
	C16.839354,76.303116 16.759706,76.117401 16.680059,75.931686 
	C16.714304,75.497536 16.748549,75.063385 17.144974,74.244202 
	C17.631092,73.258141 17.755028,72.657120 18.235249,72.009888 
	C20.485886,71.059166 22.504688,70.340401 24.230457,69.184242 
	C25.364378,68.424583 26.075352,67.033600 26.993774,65.578430 
	C26.988375,64.537437 26.964937,63.843357 26.912350,62.794678 
	C23.607897,62.289299 20.332588,62.138523 16.980148,62.091011 
	C16.903017,62.194279 16.669273,62.085571 16.813301,61.740379 
	C16.863403,60.914242 16.769476,60.433304 16.704590,59.596230 
	C16.716988,58.526314 16.700346,57.812523 16.894011,56.764980 
	C18.117439,53.951374 19.130560,51.471527 20.473942,48.826370 
	C25.097927,46.870598 29.335432,45.107342 31.952143,51.169411 
	C32.194817,51.731606 33.725544,51.737808 34.737885,52.410400 
	C34.803967,54.204205 34.790363,55.589779 34.635429,57.077713 
	C34.450684,57.287502 34.341396,57.429638 34.376266,57.495796 
	C34.478458,57.689674 34.638027,57.853306 34.817596,58.493629 
	C34.955063,65.979523 35.050049,73.000572 35.071136,79.976799 
	C34.997242,79.931969 34.824806,79.944138 34.573235,80.085999 
	C33.609634,80.466148 32.897610,80.704430 32.046722,80.694595 
	C31.355848,80.771721 30.803843,81.096962 30.048491,81.106567 
	C28.910318,80.526550 27.975492,80.262169 26.765488,80.038292 
	C26.155260,80.235199 25.820206,80.391602 25.087345,80.403748 
	C24.409986,80.221626 24.130434,80.183769 23.560291,80.212051 
	C23.122768,80.852875 22.975836,81.427567 22.502682,82.064278 
	C20.515308,83.084641 18.854158,84.042984 17.118481,84.627228 
	C17.085535,83.493294 17.127119,82.733459 17.313490,81.878159 
	C17.357620,81.510376 17.256962,81.238075 17.029564,80.934875 
	C16.902824,80.903992 16.702768,81.071457 16.702768,81.071457 
	C16.740976,80.603859 16.779182,80.136253 17.082615,79.245682 
	C17.411587,78.718597 17.553335,78.557549 17.525909,78.519966 
	C17.388922,78.332253 17.207539,78.176933 17.041767,78.010231 
z"/>
<path fill="#163366" opacity="1.000000" stroke="none" 
	d="
M83.206665,62.959492 
	C83.231232,65.648315 83.255798,68.337143 83.172478,71.873512 
	C83.160934,73.842705 83.257278,74.964348 83.353630,76.085999 
	C83.333015,77.423157 83.312408,78.760307 83.214653,80.805939 
	C83.221794,81.715736 83.306084,81.917061 83.390366,82.118378 
	C83.390366,82.118378 83.176842,82.202858 82.832413,82.220978 
	C82.193443,82.504684 81.898903,82.770279 81.376976,83.070076 
	C80.845375,83.142387 80.540909,83.178246 79.879288,83.149620 
	C79.041542,83.048042 78.560684,83.008690 77.629051,82.926178 
	C76.465973,83.417526 75.753670,83.952042 74.764481,84.652420 
	C73.632378,84.888901 72.777184,84.959511 71.605774,84.887512 
	C70.781555,83.480537 70.273552,82.216171 69.858963,80.928726 
	C69.952385,80.905663 70.103500,81.024818 70.350082,80.790161 
	C71.727867,78.070717 72.859070,75.585930 74.271034,73.063812 
	C75.054451,72.800095 75.557106,72.573708 76.377113,72.123764 
	C75.126472,71.264153 73.558479,70.628075 71.696198,69.706711 
	C71.275902,65.694275 71.149887,61.967136 71.476158,58.224148 
	C74.934052,58.260509 77.939659,58.312714 80.837433,58.668484 
	C81.092140,59.650845 81.454689,60.329643 81.890518,61.340759 
	C82.378090,62.101879 82.792381,62.530685 83.206665,62.959492 
z"/>
<path fill="#F9FCFC" opacity="1.000000" stroke="none" 
	d="
M41.462215,88.008011 
	C39.577225,88.363937 37.692234,88.719864 35.399414,88.770035 
	C34.915020,88.290840 34.838459,88.117393 34.840355,87.704437 
	C34.985664,87.310768 35.052517,87.156624 35.352497,86.811462 
	C35.443626,85.731491 35.301632,84.842529 35.085091,84.013580 
	C35.010551,84.073593 34.819431,84.083786 34.936592,83.679871 
	C34.977440,82.165352 34.901123,81.054749 34.824806,79.944138 
	C34.824806,79.944138 34.997242,79.931969 35.332561,79.654007 
	C35.778843,73.621513 36.027390,67.865211 35.953869,62.113022 
	C35.902222,58.072208 35.411968,54.036995 35.032368,49.679680 
	C34.922169,48.921795 34.897175,48.483513 35.152565,47.856041 
	C34.919823,46.798050 34.406696,45.929253 33.456413,45.030113 
	C30.677971,44.940773 28.336689,44.881771 25.995407,44.822773 
	C29.796671,43.839741 33.597935,42.856705 36.729752,42.046795 
	C38.160809,43.202511 39.265217,44.094425 40.868507,45.401207 
	C41.396122,47.786392 41.424854,49.756702 41.297455,52.084660 
	C41.231853,53.936424 41.322384,55.430550 41.424225,57.285042 
	C41.467575,58.365662 41.499607,59.085911 41.367523,60.008915 
	C41.280346,60.533016 41.357277,60.854362 41.403111,61.577530 
	C41.385044,63.591103 41.398075,65.202850 41.302544,67.158096 
	C41.267212,67.730301 41.340443,67.959023 41.402699,68.565628 
	C41.535255,74.955902 41.678795,80.968285 41.688179,87.222038 
	C41.523418,87.644943 41.492817,87.826477 41.462215,88.008011 
z"/>
<path fill="#163266" opacity="1.000000" stroke="none" 
	d="
M57.004345,26.218910 
	C59.374500,26.172338 61.744659,26.125767 64.676094,26.323069 
	C65.451477,26.781025 65.704361,26.928705 65.997208,27.409929 
	C65.996475,28.876406 65.994576,29.942936 65.712463,31.249813 
	C63.454273,35.426495 60.855125,34.324387 57.805981,32.756836 
	C56.240982,31.952280 53.452095,31.280876 52.450710,32.085526 
	C50.221313,33.876930 48.768509,36.634792 46.999603,38.999390 
	C47.000000,39.000000 46.998844,38.999199 46.650085,39.001839 
	C45.202507,39.670116 44.103691,40.335754 42.915863,41.206501 
	C42.662148,41.673843 42.435047,41.859936 42.017876,41.654190 
	C41.743683,41.165035 41.597179,40.991596 41.450680,40.818157 
	C41.403851,40.351585 41.357025,39.885010 41.352089,38.929802 
	C41.440220,38.022663 41.486462,37.604164 41.725136,36.924355 
	C42.194309,34.328514 45.724041,31.737495 41.302349,29.551067 
	C41.230785,29.334377 40.920742,28.999447 40.920742,28.999447 
	C40.951714,28.557308 40.982685,28.115170 41.350548,27.325817 
	C42.125210,26.720360 42.562977,26.462116 43.000740,26.203871 
	C46.033272,26.161747 49.065807,26.119623 52.643356,26.287413 
	C53.461056,26.399998 53.733730,26.302670 54.006405,26.205339 
	C54.450230,26.162722 54.894058,26.120106 55.761524,26.285851 
	C56.458225,26.402445 56.731285,26.310678 57.004345,26.218910 
z"/>
<path fill="#ECF7FE" opacity="1.000000" stroke="none" 
	d="
M80.945274,58.364918 
	C77.939659,58.312714 74.934052,58.260509 71.187546,58.120949 
	C70.214981,58.354721 69.983315,58.675842 69.508049,59.329357 
	C69.428886,65.442505 69.593315,71.223259 69.822365,77.404320 
	C69.959160,78.878021 70.031334,79.951424 70.103500,81.024818 
	C70.103500,81.024818 69.952385,80.905663 69.623604,81.240768 
	C69.183212,83.721359 69.071602,85.866829 68.959999,88.012306 
	C68.643318,88.007141 68.326820,88.012772 67.651070,87.760422 
	C67.204346,87.323341 67.117065,87.155060 67.136200,86.769234 
	C67.242622,86.551682 67.345970,86.078102 67.541107,85.910835 
	C67.617249,85.134697 67.498253,84.525833 67.334122,83.593376 
	C67.195656,82.848000 67.102310,82.426208 67.120667,81.546677 
	C67.147728,73.059631 67.063095,65.030327 67.044693,57.098732 
	C67.110931,57.196453 67.329369,57.106857 67.483231,56.992424 
	C67.536606,56.550556 67.436104,56.223122 67.232025,55.852551 
	C67.128433,55.809418 67.002296,55.995033 67.126434,55.669731 
	C67.335899,54.892117 67.421227,54.439804 67.506546,53.987488 
	C70.494843,53.992886 73.495155,53.837391 76.467270,54.059399 
	C78.499344,54.211189 80.492096,54.889347 82.649353,55.900009 
	C82.528984,56.991951 82.261696,57.516060 81.712067,58.056519 
	C81.268234,58.170219 81.106750,58.267570 80.945274,58.364918 
z"/>
<path fill="#153464" opacity="1.000000" stroke="none" 
	d="
M35.119370,87.002472 
	C35.052517,87.156624 34.985664,87.310768 34.574848,87.714325 
	C33.814262,88.257080 33.397644,88.550438 32.981022,88.843796 
	C27.936575,88.892212 22.892128,88.940628 17.341320,88.679146 
	C16.783161,87.927811 16.731363,87.486374 16.827616,86.722946 
	C17.048113,85.934402 17.120560,85.467865 17.193008,85.001328 
	C18.854158,84.042984 20.515308,83.084641 22.603313,82.316101 
	C23.332045,82.653465 23.633919,82.801018 24.233198,82.988518 
	C24.726671,82.988770 24.922743,82.949074 25.301609,82.992729 
	C25.484404,83.076088 25.799765,83.325081 25.805155,83.534698 
	C25.810545,83.744324 25.982241,84.126938 26.185900,84.363022 
	C27.802055,84.286247 29.214554,83.973381 30.848038,83.645355 
	C31.409367,83.429138 31.749710,83.228081 32.363708,83.140533 
	C33.364723,83.530624 34.092079,83.807205 34.819431,84.083786 
	C34.819431,84.083786 35.010551,84.073593 34.968498,84.383942 
	C34.990753,85.463676 35.055061,86.233078 35.119370,87.002472 
z"/>
<path fill="#F9FCF8" opacity="1.000000" stroke="none" 
	d="
M16.683702,57.098736 
	C16.700346,57.812523 16.716988,58.526314 16.513323,59.762665 
	C16.418434,60.885345 16.543854,61.485458 16.669273,62.085571 
	C16.669273,62.085571 16.903017,62.194279 16.860716,62.473473 
	C16.775730,63.819294 16.733047,64.885918 16.538044,66.054611 
	C16.494446,66.455605 16.603167,66.754517 16.736824,67.367943 
	C16.742477,68.102448 16.723188,68.522446 16.548962,69.041595 
	C16.356192,69.257202 16.255932,69.401321 16.292864,69.484627 
	C16.384178,69.690590 16.538324,69.868713 16.691490,70.385078 
	C16.772631,71.145416 16.829500,71.578705 16.629318,71.953880 
	C16.198523,71.921837 16.024775,71.947899 15.851027,71.973953 
	C14.478246,72.272346 13.105463,72.570740 11.145768,72.996712 
	C16.555187,66.531952 9.942854,63.249676 8.131472,58.642609 
	C10.663641,58.087246 12.860683,57.605389 15.651649,57.120384 
	C16.245573,57.117245 16.683702,57.098736 16.683702,57.098736 
z"/>
<path fill="#1A305C" opacity="1.000000" stroke="none" 
	d="
M25.578545,44.897507 
	C28.336689,44.881771 30.677971,44.940773 33.506577,45.369423 
	C34.286655,46.507786 34.579418,47.276508 34.872181,48.045231 
	C34.897175,48.483513 34.922169,48.921795 34.931595,50.008701 
	C34.830086,51.105606 34.744141,51.553886 34.658195,52.002167 
	C33.725544,51.737808 32.194817,51.731606 31.952143,51.169411 
	C29.335432,45.107342 25.097927,46.870598 20.327084,48.554600 
	C19.236254,47.647854 18.622547,46.847572 18.008839,46.047291 
	C20.393120,45.688942 22.777399,45.330593 25.578545,44.897507 
z"/>
<path fill="#FBFCF8" opacity="1.000000" stroke="none" 
	d="
M16.679565,87.044945 
	C16.731363,87.486374 16.783161,87.927811 16.868792,88.700874 
	C14.502317,88.144638 11.259113,87.939323 9.874274,86.229156 
	C6.836494,82.477753 7.914987,80.668297 13.081580,79.270798 
	C13.772053,80.781235 14.470008,82.308037 15.566326,84.239212 
	C16.202982,85.444031 16.441273,86.244492 16.679565,87.044945 
z"/>
<path fill="#133368" opacity="1.000000" stroke="none" 
	d="
M41.453590,51.727016 
	C41.424854,49.756702 41.396122,47.786392 41.240318,45.409389 
	C41.113251,45.002701 41.372856,44.677124 41.601917,44.456158 
	C41.830978,44.235191 42.152664,44.041252 42.562798,44.027847 
	C45.362328,43.817219 47.202023,44.100704 47.066071,47.290180 
	C46.998550,48.874241 47.615475,50.487480 47.551575,52.071182 
	C46.316452,52.702248 45.452522,53.349648 44.411118,53.996948 
	C43.997013,53.996693 43.760387,53.995537 43.335251,53.724144 
	C42.582355,52.878941 42.017975,52.302979 41.453590,51.727016 
z"/>
<path fill="#182C5C" opacity="1.000000" stroke="none" 
	d="
M67.425735,53.526382 
	C67.421227,54.439804 67.335899,54.892117 66.825012,55.380112 
	C66.263855,47.280354 66.128265,39.144909 65.992676,31.009468 
	C65.994576,29.942936 65.996475,28.876406 66.259415,27.404396 
	C66.695244,26.996317 66.870033,26.993715 67.044823,26.991114 
	C67.144859,35.682503 67.244896,44.373890 67.425735,53.526382 
z"/>
<path fill="#B5C0D6" opacity="1.000000" stroke="none" 
	d="
M17.779583,45.774155 
	C18.622547,46.847572 19.236254,47.647854 19.996822,48.719910 
	C19.130560,51.471527 18.117439,53.951374 16.894011,56.764980 
	C16.683702,57.098736 16.245573,57.117245 16.030104,57.072006 
	C15.868522,53.928558 15.822085,50.823063 16.046385,47.737244 
	C16.102917,46.959503 17.025652,46.244724 17.779583,45.774155 
z"/>
<path fill="#B6C5E1" opacity="1.000000" stroke="none" 
	d="
M66.980515,88.990356 
	C62.959614,89.328636 58.943657,89.843246 54.916435,89.956146 
	C50.801624,90.071495 46.675766,89.792633 42.526676,89.330330 
	C42.676125,88.913376 42.853638,88.852448 43.427002,88.860413 
	C44.891670,88.882492 45.960487,88.835670 47.447754,88.873215 
	C49.569729,88.907166 51.273251,88.856750 53.315186,88.865433 
	C54.108238,88.885239 54.562881,88.845947 55.408310,88.888321 
	C56.857632,88.918381 57.916172,88.866776 59.313179,88.872810 
	C60.105556,88.887550 60.559456,88.844650 61.338303,88.875854 
	C62.101395,88.897278 62.539551,88.844604 63.310440,88.851028 
	C64.090958,88.875328 64.538742,88.840530 65.312065,88.888519 
	C66.085243,88.977654 66.532875,88.984001 66.980515,88.990356 
z"/>
<path fill="#C5D4F0" opacity="1.000000" stroke="none" 
	d="
M69.161133,88.279541 
	C69.071602,85.866829 69.183212,83.721359 69.530182,81.263840 
	C70.273552,82.216171 70.781555,83.480537 71.744514,85.180664 
	C72.506111,86.385864 72.812759,87.155304 73.119408,87.924744 
	C71.867027,88.132088 70.614655,88.339432 69.161133,88.279541 
z"/>
<path fill="#142F5E" opacity="1.000000" stroke="none" 
	d="
M73.503723,87.960831 
	C72.812759,87.155304 72.506111,86.385864 72.060730,85.323273 
	C72.777184,84.959511 73.632378,84.888901 75.123337,84.810341 
	C76.508080,84.715622 77.257050,84.628853 78.038742,84.932022 
	C78.339127,85.766151 78.606804,86.210342 78.874481,86.654541 
	C77.212334,87.101997 75.550186,87.549461 73.503723,87.960831 
z"/>
<path fill="#F9FCFC" opacity="1.000000" stroke="none" 
	d="
M40.571182,29.067835 
	C40.920742,28.999447 41.230785,29.334377 41.147011,29.997652 
	C41.219723,32.835838 41.376209,35.010750 41.532700,37.185661 
	C41.486462,37.604164 41.440220,38.022663 41.246216,38.720451 
	C40.627689,38.865124 39.742744,38.717075 39.746613,38.597866 
	C39.849010,35.442169 40.043137,32.289452 40.571182,29.067835 
z"/>
<path fill="#142F5E" opacity="1.000000" stroke="none" 
	d="
M80.236176,83.211845 
	C80.540909,83.178246 80.845375,83.142387 81.450188,83.382378 
	C82.179092,84.108490 82.607384,84.556511 83.035683,85.004524 
	C83.106995,85.453445 83.178307,85.902359 82.916214,86.768417 
	C82.310760,87.358635 82.119431,87.596603 82.008820,87.899475 
	C80.983871,87.695724 79.958931,87.491974 78.999207,86.586014 
	C79.455009,84.993156 79.845589,84.102501 80.236176,83.211845 
z"/>
<path fill="#A7B4CB" opacity="1.000000" stroke="none" 
	d="
M81.994415,58.040173 
	C82.261696,57.516060 82.528984,56.991951 82.892532,56.185482 
	C83.251259,58.089931 83.513725,60.276737 83.491425,62.711517 
	C82.792381,62.530685 82.378090,62.101879 81.957520,60.974190 
	C81.965637,59.530262 81.980026,58.785217 81.994415,58.040173 
z"/>
<path fill="#B5C0D6" opacity="1.000000" stroke="none" 
	d="
M16.827616,86.722946 
	C16.441273,86.244492 16.202982,85.444031 15.924018,84.319832 
	C16.004831,83.165985 16.126316,82.335884 16.475285,81.288620 
	C16.702768,81.071457 16.902824,80.903992 16.978798,81.187500 
	C17.092747,81.638550 17.130726,81.806091 17.168703,81.973625 
	C17.127119,82.733459 17.085535,83.493294 17.118481,84.627228 
	C17.120560,85.467865 17.048113,85.934402 16.827616,86.722946 
z"/>
<path fill="#284272" opacity="1.000000" stroke="none" 
	d="
M79.879288,83.149620 
	C79.845589,84.102501 79.455009,84.993156 79.004601,86.249634 
	C78.944778,86.615463 78.890038,86.582092 78.882263,86.618317 
	C78.606804,86.210342 78.339127,85.766151 78.100479,84.540878 
	C78.112946,83.496307 78.096390,83.232819 78.079834,82.969337 
	C78.560684,83.008690 79.041542,83.048042 79.879288,83.149620 
z"/>
<path fill="#B5C0D6" opacity="1.000000" stroke="none" 
	d="
M15.910977,72.269592 
	C16.024775,71.947899 16.198523,71.921837 16.878754,71.936401 
	C17.549814,72.003395 17.714390,72.029747 17.878963,72.056099 
	C17.755028,72.657120 17.631092,73.258141 17.190968,73.920715 
	C16.573496,73.509918 16.272211,73.037575 15.910977,72.269592 
z"/>
<path fill="#A7B4CB" opacity="1.000000" stroke="none" 
	d="
M83.566803,75.841431 
	C83.257278,74.964348 83.160934,73.842705 83.204895,72.317642 
	C83.490135,73.141785 83.635056,74.369324 83.566803,75.841431 
z"/>
<path fill="#2A4069" opacity="1.000000" stroke="none" 
	d="
M67.142166,88.756821 
	C66.532875,88.984001 66.085243,88.977654 65.367386,88.583839 
	C65.741371,87.793182 66.385574,87.389984 67.029785,86.986786 
	C67.117065,87.155060 67.204346,87.323341 67.413925,87.748291 
	C67.458755,88.177727 67.381287,88.350502 67.142166,88.756821 
z"/>
<path fill="#2C3E61" opacity="1.000000" stroke="none" 
	d="
M83.157318,84.639671 
	C82.607384,84.556511 82.179092,84.108490 81.677582,83.348175 
	C81.898903,82.770279 82.193443,82.504684 82.765671,82.127548 
	C83.121887,82.768944 83.200417,83.521881 83.157318,84.639671 
z"/>
<path fill="#8292B4" opacity="1.000000" stroke="none" 
	d="
M42.152664,44.041252 
	C42.152664,44.041252 41.830978,44.235191 41.643982,44.252243 
	C41.337917,43.330627 41.218857,42.391960 41.275238,41.135723 
	C41.597179,40.991596 41.743683,41.165035 41.969490,41.998528 
	C42.083416,43.119469 42.118042,43.580360 42.152664,44.041252 
z"/>
<path fill="#44577C" opacity="1.000000" stroke="none" 
	d="
M33.251526,88.941650 
	C33.397644,88.550438 33.814262,88.257080 34.496387,87.953835 
	C34.838459,88.117393 34.915020,88.290840 35.080009,88.734589 
	C34.619633,89.016418 34.070835,89.027962 33.251526,88.941650 
z"/>
<path fill="#2A4069" opacity="1.000000" stroke="none" 
	d="
M43.031151,88.791519 
	C42.853638,88.852448 42.676125,88.913376 42.224197,89.037308 
	C41.852665,88.925308 41.755543,88.750305 41.560318,88.291656 
	C41.492817,87.826477 41.523418,87.644943 41.955795,87.343262 
	C42.582096,87.745918 42.806622,88.268723 43.031151,88.791519 
z"/>
<path fill="#334873" opacity="1.000000" stroke="none" 
	d="
M42.690041,26.115437 
	C42.562977,26.462116 42.125210,26.720360 41.423328,27.001266 
	C41.565918,26.691620 41.972626,26.359312 42.690041,26.115437 
z"/>
<path fill="#334873" opacity="1.000000" stroke="none" 
	d="
M66.994659,26.654526 
	C66.870033,26.993715 66.695244,26.996317 66.258240,27.004452 
	C65.704361,26.928705 65.451477,26.781025 65.116989,26.380987 
	C65.645905,26.235998 66.295204,26.276966 66.994659,26.654526 
z"/>
<path fill="#334873" opacity="1.000000" stroke="none" 
	d="
M53.754505,26.128254 
	C53.733730,26.302670 53.461056,26.399998 53.093674,26.351593 
	C53.166847,26.154297 53.334724,26.102734 53.754505,26.128254 
z"/>
<path fill="#A7B4CB" opacity="1.000000" stroke="none" 
	d="
M83.068764,88.002220 
	C83.210869,88.041130 83.352982,88.080040 83.495087,88.118950 
	C83.343063,88.222542 83.191032,88.326134 83.020401,88.212311 
	C83.001793,87.994896 83.068764,88.002220 83.068764,88.002220 
z"/>
<path fill="#334873" opacity="1.000000" stroke="none" 
	d="
M56.753925,26.135250 
	C56.731285,26.310678 56.458225,26.402445 56.091461,26.348825 
	C56.166344,26.152822 56.334923,26.102205 56.753925,26.135250 
z"/>
<path fill="#152B52" opacity="1.000000" stroke="none" 
	d="
M82.243530,88.020126 
	C82.119431,87.596603 82.310760,87.358635 82.795624,87.092201 
	C83.069977,87.163010 83.131523,87.327187 83.130920,87.746796 
	C83.068764,88.002220 83.001793,87.994896 83.000999,88.028656 
	C82.826218,88.088531 82.652237,88.114655 82.243530,88.020126 
z"/>
<path fill="#A7B4CB" opacity="1.000000" stroke="none" 
	d="
M83.559998,82.004425 
	C83.306084,81.917061 83.221794,81.715736 83.247482,81.206001 
	C83.481514,81.228546 83.605576,81.559502 83.559998,82.004425 
z"/>
<path fill="#B5C0D6" opacity="1.000000" stroke="none" 
	d="
M16.521435,76.038574 
	C16.759706,76.117401 16.839354,76.303116 16.830088,76.778664 
	C16.615053,76.760818 16.488930,76.453148 16.521435,76.038574 
z"/>
<path fill="#153464" opacity="1.000000" stroke="none" 
	d="
M16.948044,78.254333 
	C17.207539,78.176933 17.388922,78.332253 17.525909,78.519966 
	C17.553335,78.557549 17.411587,78.718597 17.184086,78.908524 
	C16.964993,78.829033 16.909657,78.663734 16.948044,78.254333 
z"/>
<path fill="#1D315E" opacity="1.000000" stroke="none" 
	d="
M18.235249,72.009888 
	C17.714390,72.029747 17.549814,72.003395 17.135803,71.994507 
	C16.829500,71.578705 16.772631,71.145416 16.817308,70.110016 
	C16.847204,69.319420 16.775553,69.130936 16.703899,68.942444 
	C16.723188,68.522446 16.742477,68.102448 16.836990,67.090683 
	C16.838266,66.316788 16.764315,66.134659 16.690363,65.952538 
	C16.733047,64.885918 16.775730,63.819294 16.937847,62.370209 
	C20.332588,62.138523 23.607897,62.289299 26.651932,62.773323 
	C26.085491,63.199955 25.750322,63.293335 25.003059,63.327621 
	C24.368189,63.994781 24.145414,64.721031 23.560474,65.417641 
	C23.175196,65.777435 23.152088,66.166862 23.128979,66.556297 
	C23.524622,66.386047 23.920265,66.215797 24.491539,66.087532 
	C24.667171,66.129517 25.003344,65.997520 25.331421,66.053299 
	C26.098244,66.047829 26.536987,65.986580 26.975731,65.925339 
	C26.075352,67.033600 25.364378,68.424583 24.230457,69.184242 
	C22.504688,70.340401 20.485886,71.059166 18.235249,72.009888 
z"/>
<path fill="#D7E5F7" opacity="1.000000" stroke="none" 
	d="
M34.737885,52.410400 
	C34.744141,51.553886 34.830086,51.105606 35.016800,50.328304 
	C35.411968,54.036995 35.902222,58.072208 35.953869,62.113022 
	C36.027390,67.865211 35.778843,73.621513 35.406456,79.698837 
	C35.050049,73.000572 34.955063,65.979523 34.899986,58.230366 
	C34.885521,57.326622 34.831139,57.150986 34.776760,56.975349 
	C34.790363,55.589779 34.803967,54.204205 34.737885,52.410400 
z"/>
<path fill="#1A2D57" opacity="1.000000" stroke="none" 
	d="
M30.627052,83.660515 
	C29.214554,83.973381 27.802055,84.286247 26.435160,84.311935 
	C26.716076,83.804230 26.951393,83.583710 27.310604,82.948608 
	C27.303219,81.688606 27.171944,80.843201 27.040665,79.997787 
	C27.975492,80.262169 28.910318,80.526550 30.113342,81.384308 
	C30.463377,82.538635 30.545216,83.099571 30.627052,83.660515 
z"/>
<path fill="#44577C" opacity="1.000000" stroke="none" 
	d="
M34.936592,83.679871 
	C34.092079,83.807205 33.364723,83.530624 32.330353,82.792191 
	C32.077423,81.867790 32.131504,81.405251 32.185585,80.942719 
	C32.897610,80.704430 33.609634,80.466148 34.573235,80.085999 
	C34.901123,81.054749 34.977440,82.165352 34.936592,83.679871 
z"/>
<path fill="#D0E7FF" opacity="1.000000" stroke="none" 
	d="
M32.046722,80.694595 
	C32.131504,81.405251 32.077423,81.867790 32.056698,82.678673 
	C31.749710,83.228081 31.409367,83.429138 30.848038,83.645355 
	C30.545216,83.099571 30.463377,82.538635 30.316689,81.699951 
	C30.803843,81.096962 31.355848,80.771721 32.046722,80.694595 
z"/>
<path fill="#CBE3FD" opacity="1.000000" stroke="none" 
	d="
M26.993773,65.578430 
	C26.536987,65.986580 26.098244,66.047829 25.408791,65.730789 
	C25.243773,64.697235 25.329462,64.041977 25.415154,63.386715 
	C25.750322,63.293335 26.085491,63.199955 26.681078,63.127930 
	C26.964937,63.843357 26.988375,64.537437 26.993773,65.578430 
z"/>
<path fill="#E0EFFE" opacity="1.000000" stroke="none" 
	d="
M26.765490,80.038292 
	C27.171944,80.843201 27.303219,81.688606 26.964542,82.909653 
	C26.262981,83.298561 26.031372,83.311821 25.799765,83.325081 
	C25.799765,83.325081 25.484404,83.076088 25.367794,82.700180 
	C25.329172,81.732178 25.407162,81.140091 25.485151,80.548004 
	C25.820206,80.391602 26.155260,80.235199 26.765490,80.038292 
z"/>
<path fill="#667595" opacity="1.000000" stroke="none" 
	d="
M25.087345,80.403748 
	C25.407162,81.140091 25.329172,81.732178 25.184998,82.616821 
	C24.922743,82.949074 24.726671,82.988770 24.264435,82.638000 
	C23.949137,81.546997 23.900009,80.846458 23.850880,80.145912 
	C24.130434,80.183769 24.409986,80.221626 25.087345,80.403748 
z"/>
<path fill="#D6E9FF" opacity="1.000000" stroke="none" 
	d="
M23.560291,80.212051 
	C23.900009,80.846458 23.949137,81.546997 23.967030,82.598061 
	C23.633919,82.801018 23.332045,82.653465 22.929537,82.254089 
	C22.975836,81.427567 23.122768,80.852875 23.560291,80.212051 
z"/>
<path fill="#B5C0D6" opacity="1.000000" stroke="none" 
	d="
M16.813301,61.740379 
	C16.543854,61.485458 16.418434,60.885345 16.484280,60.118797 
	C16.769476,60.433304 16.863403,60.914242 16.813301,61.740379 
z"/>
<path fill="#44577C" opacity="1.000000" stroke="none" 
	d="
M34.635429,57.077713 
	C34.831139,57.150986 34.885521,57.326622 34.857510,57.765526 
	C34.638027,57.853306 34.478458,57.689674 34.376266,57.495796 
	C34.341396,57.429638 34.450684,57.287502 34.635429,57.077713 
z"/>
<path fill="#153464" opacity="1.000000" stroke="none" 
	d="
M17.313490,81.878159 
	C17.130726,81.806091 17.092747,81.638550 17.105537,81.218391 
	C17.256962,81.238075 17.357620,81.510376 17.313490,81.878159 
z"/>
<path fill="#2A3C5E" opacity="1.000000" stroke="none" 
	d="
M69.751648,58.996964 
	C69.983315,58.675842 70.214981,58.354721 70.735260,58.136795 
	C71.149887,61.967136 71.275902,65.694275 71.646011,70.086708 
	C72.557098,71.272240 73.224083,71.792488 73.914536,72.510002 
	C73.937996,72.707275 73.990265,73.101143 73.990265,73.101143 
	C72.859070,75.585930 71.727867,78.070717 70.350082,80.790161 
	C70.031334,79.951424 69.959160,78.878021 69.908180,76.942955 
	C69.870132,70.386513 69.810890,64.691734 69.751648,58.996964 
z"/>
<path fill="#91ABD1" opacity="1.000000" stroke="none" 
	d="
M73.891068,72.312729 
	C73.224083,71.792488 72.557098,71.272240 71.940300,70.371994 
	C73.558479,70.628075 75.126472,71.264153 76.022644,72.028519 
	C74.864235,72.208786 74.377655,72.260757 73.891068,72.312729 
z"/>
<path fill="#88A2CE" opacity="1.000000" stroke="none" 
	d="
M77.629051,82.926178 
	C78.096390,83.232819 78.112946,83.496307 78.067764,84.150940 
	C77.257050,84.628853 76.508080,84.715622 75.400238,84.644470 
	C75.753670,83.952042 76.465973,83.417526 77.629051,82.926178 
z"/>
<path fill="#344E75" opacity="1.000000" stroke="none" 
	d="
M81.712067,58.056519 
	C81.980026,58.785217 81.965637,59.530262 81.884232,60.641872 
	C81.454689,60.329643 81.092140,59.650845 80.837433,58.668484 
	C81.106750,58.267570 81.268234,58.170219 81.712067,58.056519 
z"/>
<path fill="#475F81" opacity="1.000000" stroke="none" 
	d="
M73.914536,72.510002 
	C74.377655,72.260757 74.864235,72.208786 75.705292,72.252060 
	C75.557106,72.573708 75.054451,72.800095 74.271027,73.063812 
	C73.990265,73.101143 73.937996,72.707275 73.914536,72.510002 
z"/>
<path fill="#143368" opacity="1.000000" stroke="none" 
	d="
M43.426998,88.860413 
	C42.806622,88.268723 42.582096,87.745918 42.089951,87.101898 
	C41.678795,80.968285 41.535255,74.955902 41.584351,68.437775 
	C41.655025,67.559555 41.533066,67.187080 41.411106,66.814606 
	C41.398075,65.202850 41.385044,63.591103 41.590954,61.382736 
	C41.717144,60.459465 41.624393,60.132809 41.531639,59.806156 
	C41.499607,59.085911 41.467575,58.365662 41.823021,57.235371 
	C42.648254,55.881344 43.086010,54.937366 43.523766,53.993385 
	C43.760387,53.995537 43.997013,53.996693 44.478127,54.364368 
	C45.469112,55.450115 46.215618,56.168339 46.980682,57.271667 
	C48.864174,59.209785 50.729099,60.762791 52.621277,62.338493 
	C50.295612,66.099388 47.781132,70.048508 45.412640,74.083321 
	C44.863712,75.018425 44.813080,76.246040 44.533161,77.339058 
	C45.763847,77.045059 47.026512,76.844254 48.217796,76.435440 
	C50.048660,75.807159 51.791306,74.600098 53.642841,74.433678 
	C56.058922,74.216507 58.544777,74.775665 60.990601,75.385712 
	C59.375248,76.514656 57.769905,77.258667 56.063812,77.745651 
	C55.647507,77.378380 55.331944,77.268127 54.792099,77.087891 
	C54.567818,77.017914 54.099236,77.052948 53.734352,77.025917 
	C52.882534,77.014809 52.395607,77.030731 51.523964,77.047089 
	C50.719124,78.275368 50.299000,79.503212 49.878876,80.731064 
	C50.244247,80.885208 50.609623,81.039345 50.974995,81.193481 
	C51.463383,80.531273 51.951775,79.869064 52.578106,79.350792 
	C53.070492,79.674728 53.424934,79.854729 53.943653,80.325943 
	C54.801071,80.393982 55.494209,80.170792 56.574642,79.962601 
	C60.698917,78.730034 64.019600,79.546051 67.008972,82.004417 
	C67.102310,82.426208 67.195656,82.848000 67.198059,83.944458 
	C67.186737,85.105453 67.266350,85.591782 67.345970,86.078102 
	C67.345970,86.078102 67.242622,86.551682 67.136200,86.769226 
	C66.385574,87.389984 65.741371,87.793182 65.041847,88.501053 
	C64.538742,88.840530 64.090958,88.875328 63.155396,88.660271 
	C62.116196,88.540863 61.564777,88.671303 61.013359,88.801743 
	C60.559456,88.844650 60.105556,88.887550 59.088120,88.648972 
	C57.355568,88.513870 56.186543,88.660263 55.017521,88.806656 
	C54.562881,88.845947 54.108238,88.885239 53.049931,88.629951 
	C50.640610,88.486526 48.834961,88.637688 47.029308,88.788849 
	C45.960487,88.835670 44.891670,88.882492 43.426998,88.860413 
M44.202366,71.608345 
	C44.206581,71.214211 44.210796,70.820084 44.215012,70.425949 
	C44.051517,70.424416 43.745918,70.411926 43.745068,70.422943 
	C43.714809,70.815178 43.713085,71.209602 44.202366,71.608345 
z"/>
<path fill="#8292B4" opacity="1.000000" stroke="none" 
	d="
M43.335251,53.724144 
	C43.086010,54.937366 42.648254,55.881344 41.811707,56.875000 
	C41.322384,55.430550 41.231853,53.936424 41.297459,52.084660 
	C42.017975,52.302979 42.582355,52.878941 43.335251,53.724144 
z"/>
<path fill="#D7E5F7" opacity="1.000000" stroke="none" 
	d="
M35.152565,47.856041 
	C34.579418,47.276508 34.286655,46.507786 33.943733,45.399757 
	C34.406696,45.929253 34.919823,46.798050 35.152565,47.856041 
z"/>
<path fill="#D7E5F7" opacity="1.000000" stroke="none" 
	d="
M35.352493,86.811462 
	C35.055061,86.233078 34.990753,85.463676 35.043037,84.323929 
	C35.301632,84.842529 35.443626,85.731491 35.352493,86.811462 
z"/>
<path fill="#8292B4" opacity="1.000000" stroke="none" 
	d="
M41.367523,60.008915 
	C41.624393,60.132809 41.717144,60.459465 41.622051,60.980911 
	C41.357277,60.854362 41.280346,60.533016 41.367523,60.008915 
z"/>
<path fill="#8292B4" opacity="1.000000" stroke="none" 
	d="
M41.302544,67.158096 
	C41.533066,67.187080 41.655025,67.559555 41.595329,68.059891 
	C41.340443,67.959023 41.267212,67.730301 41.302544,67.158096 
z"/>
<path fill="#14346F" opacity="1.000000" stroke="none" 
	d="
M61.000610,75.000793 
	C58.544777,74.775665 56.058922,74.216507 53.642841,74.433678 
	C51.791306,74.600098 50.048660,75.807159 48.217796,76.435440 
	C47.026512,76.844254 45.763847,77.045059 44.533161,77.339058 
	C44.813080,76.246040 44.863712,75.018425 45.412640,74.083321 
	C47.781132,70.048508 50.295612,66.099388 52.621277,62.338493 
	C50.729099,60.762791 48.864174,59.209785 47.043839,57.040108 
	C47.269905,56.130203 47.531685,55.961834 48.162128,55.946350 
	C48.643681,55.976337 48.836880,55.978317 49.197205,56.225342 
	C49.912933,56.687813 50.461536,56.905235 51.089294,57.477055 
	C54.662094,59.698566 55.832195,59.482796 56.031898,56.644115 
	C56.093376,54.894783 56.023365,53.460190 56.249840,51.753975 
	C56.682213,49.279831 56.818100,47.077301 56.948013,44.640350 
	C56.942032,44.405926 56.744377,43.980385 56.815010,43.595409 
	C56.252552,42.302162 55.619465,41.393887 55.169891,40.256699 
	C55.178261,39.197094 55.003117,38.366409 54.827976,37.535721 
	C53.552845,38.024033 52.277714,38.512341 50.725243,38.896053 
	C49.298336,38.860561 48.148769,38.929672 46.999203,38.998779 
	C48.768509,36.634792 50.221313,33.876930 52.450710,32.085526 
	C53.452095,31.280876 56.240982,31.952280 57.805981,32.756836 
	C60.855125,34.324387 63.454273,35.426495 65.712463,31.249813 
	C66.128265,39.144909 66.263855,47.280354 66.700874,55.705414 
	C67.002296,55.995033 67.128433,55.809418 67.105255,56.154678 
	C67.164513,56.702244 67.246941,56.904552 67.329369,57.106857 
	C67.329369,57.106857 67.110931,57.196453 66.752518,57.395714 
	C66.394096,62.818577 66.394096,68.042175 66.394096,73.050758 
	C64.045311,73.899979 62.522961,74.450386 61.000610,75.000793 
z"/>
<path fill="#123472" opacity="1.000000" stroke="none" 
	d="
M46.999603,38.999390 
	C48.148769,38.929672 49.298336,38.860561 50.724331,39.330597 
	C51.459949,42.875034 51.919140,45.880322 52.378326,48.885612 
	C53.303230,49.377693 52.759590,49.642963 52.371838,50.054955 
	C51.854248,50.604900 51.457726,51.268791 50.752380,51.966980 
	C50.145950,52.134087 49.796341,52.217957 49.049324,52.227829 
	C48.382450,52.150013 48.112984,52.146191 47.851204,52.111137 
	C47.858898,52.079906 47.922764,52.087517 47.922764,52.087517 
	C47.615475,50.487480 46.998550,48.874241 47.066071,47.290180 
	C47.202023,44.100704 45.362328,43.817219 42.562798,44.027847 
	C42.118042,43.580360 42.083416,43.119469 42.097176,42.314240 
	C42.435047,41.859936 42.662148,41.673843 43.291344,41.205273 
	C44.836838,40.332355 45.917843,39.665779 46.998848,38.999199 
	C46.998844,38.999199 47.000000,39.000000 46.999603,38.999390 
z"/>
<path fill="#8292B4" opacity="1.000000" stroke="none" 
	d="
M41.725136,36.924355 
	C41.376209,35.010750 41.219723,32.835838 41.218575,30.214344 
	C45.724041,31.737495 42.194309,34.328514 41.725136,36.924355 
z"/>
<path fill="#14346F" opacity="1.000000" stroke="none" 
	d="
M46.650085,39.001842 
	C45.917843,39.665779 44.836838,40.332355 43.380352,41.000160 
	C44.103691,40.335754 45.202507,39.670116 46.650085,39.001842 
z"/>
<path fill="#162D5E" opacity="1.000000" stroke="none" 
	d="
M60.990601,75.385719 
	C62.522961,74.450386 64.045311,73.899979 66.394096,73.050758 
	C66.394096,68.042175 66.394096,62.818577 66.686279,57.297997 
	C67.063095,65.030327 67.147728,73.059631 67.120667,81.546677 
	C64.019600,79.546051 60.698917,78.730034 56.482101,79.954117 
	C56.002270,79.930626 55.842728,80.025963 55.915062,79.691010 
	C56.046452,78.904930 56.105511,78.453812 56.164566,78.002686 
	C57.769905,77.258667 59.375248,76.514656 60.990601,75.385719 
z"/>
<path fill="#C5D4F0" opacity="1.000000" stroke="none" 
	d="
M69.508049,59.329357 
	C69.810890,64.691734 69.870132,70.386513 69.843559,76.542648 
	C69.593315,71.223259 69.428886,65.442505 69.508049,59.329357 
z"/>
<path fill="#9FAEC8" opacity="1.000000" stroke="none" 
	d="
M67.541107,85.910835 
	C67.266350,85.591782 67.186737,85.105453 67.243187,84.268051 
	C67.498253,84.525833 67.617249,85.134697 67.541107,85.910835 
z"/>
<path fill="#9FAEC8" opacity="1.000000" stroke="none" 
	d="
M67.483231,56.992424 
	C67.246941,56.904552 67.164513,56.702244 67.208847,56.197811 
	C67.436104,56.223122 67.536606,56.550556 67.483231,56.992424 
z"/>
<path fill="#7383A8" opacity="1.000000" stroke="none" 
	d="
M25.805155,83.534698 
	C26.031372,83.311821 26.262981,83.298561 26.840649,83.324242 
	C26.951393,83.583710 26.716076,83.804230 26.231501,84.075844 
	C25.982241,84.126938 25.810545,83.744324 25.805155,83.534698 
z"/>
<path fill="#B5C0D6" opacity="1.000000" stroke="none" 
	d="
M16.538044,66.054611 
	C16.764315,66.134659 16.838266,66.316788 16.812052,66.776176 
	C16.603167,66.754517 16.494446,66.455605 16.538044,66.054611 
z"/>
<path fill="#B5C0D6" opacity="1.000000" stroke="none" 
	d="
M16.548962,69.041595 
	C16.775553,69.130936 16.847204,69.319420 16.793037,69.782959 
	C16.538324,69.868713 16.384178,69.690590 16.292864,69.484627 
	C16.255932,69.401321 16.356192,69.257202 16.548962,69.041595 
z"/>
<path fill="#DAE9FD" opacity="1.000000" stroke="none" 
	d="
M47.873775,55.918335 
	C47.531685,55.961834 47.269905,56.130203 47.025276,56.655003 
	C46.215618,56.168339 45.469112,55.450115 44.655602,54.364471 
	C45.452522,53.349648 46.316452,52.702248 47.551575,52.071182 
	C47.922764,52.087517 47.858898,52.079906 47.890648,52.487862 
	C47.906193,53.903324 47.889984,54.910828 47.873775,55.918335 
z"/>
<path fill="#2A4069" opacity="1.000000" stroke="none" 
	d="
M47.447754,88.873215 
	C48.834961,88.637688 50.640610,88.486526 52.711517,88.570847 
	C51.273251,88.856750 49.569729,88.907166 47.447754,88.873215 
z"/>
<path fill="#2A4069" opacity="1.000000" stroke="none" 
	d="
M55.408310,88.888321 
	C56.186543,88.660263 57.355568,88.513870 58.749649,88.591324 
	C57.916172,88.866776 56.857632,88.918381 55.408310,88.888321 
z"/>
<path fill="#2A4069" opacity="1.000000" stroke="none" 
	d="
M61.338303,88.875847 
	C61.564777,88.671303 62.116196,88.540863 62.822659,88.601181 
	C62.539551,88.844604 62.101395,88.897278 61.338303,88.875847 
z"/>
<path fill="#5B7199" opacity="1.000000" stroke="none" 
	d="
M25.003057,63.327621 
	C25.329462,64.041977 25.243773,64.697235 25.080711,65.675011 
	C25.003344,65.997520 24.667171,66.129517 24.384203,65.943893 
	C24.101234,65.758270 23.922642,65.447281 23.922642,65.447281 
	C24.145414,64.721031 24.368189,63.994781 25.003057,63.327621 
z"/>
<path fill="#B0BEE8" opacity="1.000000" stroke="none" 
	d="
M24.208572,65.901909 
	C23.920265,66.215797 23.524622,66.386047 23.128979,66.556297 
	C23.152088,66.166862 23.175196,65.777435 23.560474,65.417641 
	C23.922642,65.447281 24.101234,65.758270 24.208572,65.901909 
z"/>
<path fill="#E4F4FF" opacity="1.000000" stroke="none" 
	d="
M52.440163,79.206856 
	C51.951775,79.869064 51.463383,80.531273 50.974995,81.193481 
	C50.609623,81.039345 50.244247,80.885208 49.878876,80.731064 
	C50.299000,79.503212 50.719124,78.275368 51.614250,77.408997 
	C52.206223,78.249268 52.323193,78.728058 52.440163,79.206856 
z"/>
<path fill="#D6E6FE" opacity="1.000000" stroke="none" 
	d="
M56.094810,79.939117 
	C55.494209,80.170792 54.801071,80.393982 54.034039,79.960083 
	C54.006512,78.552979 54.052872,77.802963 54.099236,77.052948 
	C54.099236,77.052948 54.567818,77.017914 54.786350,77.403046 
	C55.284164,78.534103 55.563446,79.280029 55.842728,80.025963 
	C55.842728,80.025963 56.002270,79.930626 56.094810,79.939117 
z"/>
<path fill="#3F5374" opacity="1.000000" stroke="none" 
	d="
M53.734352,77.025917 
	C54.052872,77.802963 54.006512,78.552979 53.869762,79.668854 
	C53.424934,79.854729 53.070492,79.674728 52.578106,79.350792 
	C52.323193,78.728058 52.206223,78.249268 51.998966,77.408562 
	C52.395607,77.030731 52.882534,77.014809 53.734352,77.025917 
z"/>
<path fill="#14346F" opacity="1.000000" stroke="none" 
	d="
M43.954865,71.606033 
	C43.713085,71.209602 43.714809,70.815178 43.745068,70.422943 
	C43.745918,70.411926 44.051517,70.424416 44.215012,70.425949 
	C44.210796,70.820084 44.206581,71.214211 43.954865,71.606033 
z"/>
<path fill="#EEFDFF" opacity="1.000000" stroke="none" 
	d="
M55.915062,79.691010 
	C55.563446,79.280029 55.284164,78.534103 55.010635,77.473022 
	C55.331944,77.268127 55.647507,77.378380 56.063816,77.745659 
	C56.105511,78.453812 56.046452,78.904930 55.915062,79.691010 
z"/>
<path fill="#163364" opacity="1.000000" stroke="none" 
	d="
M51.009205,51.883743 
	C51.457726,51.268791 51.854248,50.604900 52.371838,50.054955 
	C52.759590,49.642963 53.303230,49.377693 52.378326,48.885612 
	C51.919140,45.880322 51.459949,42.875034 51.001671,39.435196 
	C52.277714,38.512341 53.552845,38.024033 54.827976,37.535721 
	C55.003117,38.366409 55.178261,39.197094 54.904835,40.554382 
	C54.413937,42.556381 52.399597,44.832191 56.222435,44.887749 
	C56.464134,44.938648 56.953991,44.874775 56.953991,44.874775 
	C56.818100,47.077301 56.682213,49.279831 55.950989,51.738697 
	C54.958588,52.030781 54.561531,52.066525 53.780037,52.069046 
	C52.883045,52.058571 52.370491,52.081314 51.637119,52.082237 
	C51.416306,52.060410 51.009205,51.883743 51.009205,51.883743 
z"/>
<path fill="#E2FBFF" opacity="1.000000" stroke="none" 
	d="
M50.752380,51.966980 
	C51.009205,51.883743 51.416306,52.060410 51.714577,52.476681 
	C52.130878,53.955223 52.248905,55.017498 52.200382,56.320976 
	C51.692600,56.749008 51.351372,56.935833 51.010143,57.122658 
	C50.461536,56.905235 49.912933,56.687813 49.322426,55.871346 
	C49.335930,54.282143 49.391331,53.291988 49.446732,52.301830 
	C49.796341,52.217957 50.145950,52.134087 50.752380,51.966980 
z"/>
<path fill="#143368" opacity="1.000000" stroke="none" 
	d="
M51.089294,57.477051 
	C51.351372,56.935833 51.692600,56.749008 52.448082,56.322483 
	C53.190540,56.039040 53.520145,56.021244 53.997932,56.302643 
	C54.729946,56.703537 55.315182,56.831192 55.900414,56.958847 
	C55.832195,59.482796 54.662094,59.698566 51.089294,57.477051 
z"/>
<path fill="#D5E5FB" opacity="1.000000" stroke="none" 
	d="
M56.031898,56.644112 
	C55.315182,56.831192 54.729946,56.703537 54.052540,55.911861 
	C54.028404,54.199318 54.096436,53.150795 54.164467,52.102272 
	C54.561531,52.066525 54.958588,52.030781 55.654503,52.010315 
	C56.023365,53.460190 56.093376,54.894783 56.031898,56.644112 
z"/>
<path fill="#D6E9FF" opacity="1.000000" stroke="none" 
	d="
M55.980736,44.836853 
	C52.399597,44.832191 54.413937,42.556381 54.721325,40.783302 
	C55.619465,41.393887 56.252552,42.302162 56.633560,43.681171 
	C56.176556,44.338470 56.042973,44.566784 55.980736,44.836853 
z"/>
<path fill="#485674" opacity="1.000000" stroke="none" 
	d="
M49.049324,52.227829 
	C49.391331,53.291988 49.335930,54.282143 49.155304,55.626301 
	C48.836880,55.978317 48.643681,55.976337 48.162128,55.946350 
	C47.889984,54.910828 47.906193,53.903324 47.882957,52.519096 
	C48.112984,52.146191 48.382450,52.150013 49.049324,52.227829 
z"/>
<path fill="#B3C6E6" opacity="1.000000" stroke="none" 
	d="
M56.222435,44.887749 
	C56.042973,44.566784 56.176556,44.338470 56.562931,44.066147 
	C56.744377,43.980385 56.942032,44.405926 56.948013,44.640350 
	C56.953991,44.874775 56.464134,44.938648 56.222435,44.887749 
z"/>
<path fill="#46586C" opacity="1.000000" stroke="none" 
	d="
M53.780037,52.069046 
	C54.096436,53.150795 54.028404,54.199318 53.905762,55.638618 
	C53.520145,56.021244 53.190540,56.039040 52.614639,56.081276 
	C52.248905,55.017498 52.130878,53.955223 51.935390,52.498505 
	C52.370491,52.081314 52.883045,52.058571 53.780037,52.069046 
z"/>
</svg>