<svg width="62" height="64" viewBox="0 0 62 64" fill="none" xmlns="http://www.w3.org/2000/svg">
<path d="M20.7375 49.6751C20.7375 49.9251 20.45 50.1251 20.0875 50.1251C19.675 50.1626 19.3875 49.9626 19.3875 49.6751C19.3875 49.4251 19.675 49.2251 20.0375 49.2251C20.4125 49.1876 20.7375 49.3876 20.7375 49.6751ZM16.85 49.1126C16.7625 49.3626 17.0125 49.6501 17.3875 49.7251C17.7125 49.8501 18.0875 49.7251 18.1625 49.4751C18.2375 49.2251 18 48.9376 17.625 48.8251C17.3 48.7376 16.9375 48.8626 16.85 49.1126ZM22.375 48.9001C22.0125 48.9876 21.7625 49.2251 21.8 49.5126C21.8375 49.7626 22.1625 49.9251 22.5375 49.8376C22.9 49.7501 23.15 49.5126 23.1125 49.2626C23.075 49.0251 22.7375 48.8626 22.375 48.9001ZM30.6 1.00012C13.2625 1.00012 0 14.1626 0 31.5001C0 45.3626 8.725 57.2251 21.1875 61.4001C22.7875 61.6876 23.35 60.7001 23.35 59.8876C23.35 59.1126 23.3125 54.8376 23.3125 52.2126C23.3125 52.2126 14.5625 54.0876 12.725 48.4876C12.725 48.4876 11.3 44.8501 9.25 43.9126C9.25 43.9126 6.3875 41.9501 9.45 41.9876C9.45 41.9876 12.5625 42.2376 14.275 45.2126C17.0125 50.0376 21.6 48.6501 23.3875 47.8251C23.675 45.8251 24.4875 44.4376 25.3875 43.6126C18.4 42.8376 11.35 41.8251 11.35 29.8001C11.35 26.3626 12.3 24.6376 14.3 22.4376C13.975 21.6251 12.9125 18.2751 14.625 13.9501C17.2375 13.1376 23.25 17.3251 23.25 17.3251C25.75 16.6251 28.4375 16.2626 31.1 16.2626C33.7625 16.2626 36.45 16.6251 38.95 17.3251C38.95 17.3251 44.9625 13.1251 47.575 13.9501C49.2875 18.2876 48.225 21.6251 47.9 22.4376C49.9 24.6501 51.125 26.3751 51.125 29.8001C51.125 41.8626 43.7625 42.8251 36.775 43.6126C37.925 44.6001 38.9 46.4751 38.9 49.4126C38.9 53.6251 38.8625 58.8376 38.8625 59.8626C38.8625 60.6751 39.4375 61.6626 41.025 61.3751C53.525 57.2251 62 45.3626 62 31.5001C62 14.1626 47.9375 1.00012 30.6 1.00012ZM12.15 44.1126C11.9875 44.2376 12.025 44.5251 12.2375 44.7626C12.4375 44.9626 12.725 45.0501 12.8875 44.8876C13.05 44.7626 13.0125 44.4751 12.8 44.2376C12.6 44.0376 12.3125 43.9501 12.15 44.1126ZM10.8 43.1001C10.7125 43.2626 10.8375 43.4626 11.0875 43.5876C11.2875 43.7126 11.5375 43.6751 11.625 43.5001C11.7125 43.3376 11.5875 43.1376 11.3375 43.0126C11.0875 42.9376 10.8875 42.9751 10.8 43.1001ZM14.85 47.5501C14.65 47.7126 14.725 48.0876 15.0125 48.3251C15.3 48.6126 15.6625 48.6501 15.825 48.4501C15.9875 48.2876 15.9125 47.9126 15.6625 47.6751C15.3875 47.3876 15.0125 47.3501 14.85 47.5501ZM13.425 45.7126C13.225 45.8376 13.225 46.1626 13.425 46.4501C13.625 46.7376 13.9625 46.8626 14.125 46.7376C14.325 46.5751 14.325 46.2501 14.125 45.9626C13.95 45.6751 13.625 45.5501 13.425 45.7126Z" fill="#261F22"/>
</svg>
