<svg version="1.1" id="Layer_1" xmlns="http://www.w3.org/2000/svg" xmlns:xlink="http://www.w3.org/1999/xlink" x="0px" y="0px"
	 width="100%" viewBox="0 0 148 160" enable-background="new 0 0 148 160" xml:space="preserve">
<path fill="#FEFEFE" opacity="1.000000" stroke="none" 
	d="
M75.000000,161.000000 
	C50.019897,161.000000 25.539797,161.000000 1.029847,161.000000 
	C1.029847,107.729897 1.029847,54.459770 1.029847,1.094821 
	C50.229889,1.094821 99.460022,1.094821 148.845078,1.094821 
	C148.845078,54.332981 148.845078,107.666443 148.845078,161.000000 
	C124.460136,161.000000 99.980064,161.000000 75.000000,161.000000 
M77.531464,115.683823 
	C77.573120,117.190071 77.614769,118.696312 77.348946,120.858894 
	C77.297493,121.574974 77.246040,122.291046 77.129303,123.534111 
	C77.433968,123.955429 77.738632,124.376747 77.380371,125.119049 
	C77.171913,126.060326 76.963463,127.001610 76.271454,127.478912 
	C74.135254,125.196449 74.143669,127.146324 74.073723,128.638565 
	C73.703621,136.533966 73.344147,144.430176 73.061531,152.328995 
	C73.011864,153.717316 73.344734,155.119324 73.500938,156.514999 
	C73.758026,156.450943 74.015114,156.386902 74.272202,156.322861 
	C75.112373,150.228729 75.952545,144.134613 77.062027,138.678574 
	C85.022324,148.629593 100.359505,148.746536 106.517441,139.267212 
	C108.038979,142.386688 109.560516,145.506165 111.082054,148.625641 
	C111.598480,148.396011 112.114906,148.166367 112.631325,147.936737 
	C110.728905,143.947525 108.826477,139.958298 106.925095,135.132019 
	C106.919891,133.757950 106.914696,132.383881 107.025688,130.298431 
	C108.569916,127.697662 110.992828,125.248970 111.474785,122.464348 
	C112.466881,116.732201 112.421684,110.820526 112.980438,104.140228 
	C112.850288,102.146034 112.720139,100.151848 112.860382,97.316879 
	C113.453896,93.545685 114.277489,89.793709 114.594452,85.999413 
	C115.320076,77.313293 117.666199,68.550766 113.883537,59.287010 
	C108.561798,48.830853 98.804588,44.873875 88.329895,42.356003 
	C83.077431,41.093430 76.817726,46.973701 77.042511,52.767715 
	C76.643684,58.677525 75.612236,64.628769 75.995987,70.487312 
	C76.555519,79.029404 78.132782,87.504829 79.035278,96.812737 
	C78.703461,101.264343 78.371643,105.715942 77.744492,110.778473 
	C77.766762,112.127213 77.789032,113.475945 77.531464,115.683823 
M31.201017,48.439117 
	C28.055397,61.084160 30.775669,73.429825 33.009735,86.718430 
	C33.033043,89.477570 33.056351,92.236702 32.987602,95.922409 
	C32.880585,103.988075 32.501408,112.115204 38.047138,119.672188 
	C39.075794,122.957222 39.930782,126.312393 41.215786,129.493896 
	C41.754539,130.827774 43.143440,132.698700 44.250431,132.773300 
	C49.612034,133.134583 55.009171,132.968613 60.528767,133.991272 
	C58.771767,135.408752 57.014771,136.826233 54.719685,138.677826 
	C62.753956,139.076233 70.209976,134.831070 70.546051,130.092056 
	C67.774879,131.592850 65.115784,133.109146 62.357174,134.415253 
	C62.064369,134.553894 61.188313,133.460648 61.284016,132.763626 
	C65.555336,130.406662 69.737686,127.821449 69.454498,122.146866 
	C69.268257,118.415100 68.427216,114.716019 67.970535,110.073776 
	C67.899834,105.373833 67.829132,100.673889 67.961433,95.149635 
	C67.036880,91.149399 66.112320,87.149162 65.885010,82.800941 
	C67.024300,76.164406 68.256432,69.542137 69.279037,62.887669 
	C70.517441,54.828945 70.648911,46.801468 67.789963,38.287704 
	C66.168625,35.908230 64.547279,33.528755 62.986412,30.320557 
	C61.486809,24.299765 59.987209,18.278975 58.487610,12.258182 
	C57.956013,12.396340 57.424412,12.534498 56.892811,12.672656 
	C58.256504,18.684412 59.620193,24.696169 60.164284,30.639055 
	C58.393127,30.754017 56.502728,30.506582 54.870461,31.043657 
	C45.373646,34.168453 35.649921,37.087288 31.201017,48.439117 
M135.288422,90.493965 
	C135.782852,92.187126 136.277283,93.880287 136.771729,95.573456 
	C137.177292,95.567719 137.582870,95.561981 137.988434,95.556244 
	C137.152313,89.221611 138.160568,83.584877 144.059341,79.251785 
	C137.851242,85.327454 132.164917,80.899529 126.232361,80.148514 
	C128.415390,81.869667 130.598419,83.590820 133.522141,85.895958 
	C129.963425,87.487991 127.384468,88.641724 124.726898,89.830627 
	C125.513237,91.157074 126.416275,92.680367 127.382233,94.309792 
	C129.332092,89.652992 132.221878,88.003975 135.288422,90.493965 
M75.111092,33.643909 
	C75.736664,32.972557 76.886414,32.315620 76.905342,31.627579 
	C77.064659,25.835712 77.020004,20.038160 77.030434,14.242307 
	C77.036652,10.788960 77.031578,7.335593 77.031578,3.882235 
	C76.351494,3.892333 75.671402,3.902431 74.991318,3.912529 
	C74.991318,13.544912 74.991318,23.177294 75.111092,33.643909 
M113.461098,16.107985 
	C113.534119,15.313037 113.607140,14.518088 113.680161,13.723141 
	C113.374138,13.638634 113.068115,13.554127 112.762100,13.469620 
	C108.503670,22.058445 104.245247,30.647270 99.986816,39.236095 
	C100.505989,39.498337 101.025154,39.760574 101.544319,40.022816 
	C105.409004,32.263069 109.273682,24.503323 113.461098,16.107985 
M25.617998,55.184254 
	C26.345428,54.626793 27.503754,54.204380 27.727901,53.489185 
	C28.879791,49.813854 29.791597,46.063278 30.787252,42.338982 
	C30.481091,42.022175 30.174927,41.705364 29.868765,41.388557 
	C28.781683,42.552639 27.099279,43.554035 26.727732,44.913658 
	C25.875391,48.032658 25.662277,51.326340 25.617998,55.184254 
M120.914154,59.680630 
	C120.051506,58.945824 119.188858,58.211018 118.073883,57.261276 
	C116.296425,64.017365 117.297249,67.349075 122.294968,69.449699 
	C121.878220,66.084244 121.531776,63.286533 120.914154,59.680630 
M79.427818,42.968678 
	C80.999214,41.873573 82.570610,40.778469 84.356377,39.533978 
	C80.505203,37.907532 77.111450,39.091824 75.211296,42.761093 
	C74.659706,43.826233 75.126595,45.418797 75.126595,47.874424 
	C77.028839,45.474945 77.896744,44.380177 79.427818,42.968678 
M92.594513,19.773769 
	C90.943802,24.930914 89.293091,30.088057 87.642372,35.245201 
	C88.357925,35.428288 89.073479,35.611378 89.789032,35.794464 
	C90.848885,30.657562 91.908737,25.520662 92.594513,19.773769 
M7.499681,90.888069 
	C9.075645,89.311890 10.651609,87.735710 12.227574,86.159531 
	C11.941716,85.837486 11.655859,85.515442 11.370001,85.193398 
	C10.134622,85.751511 8.899241,86.309624 7.707797,86.847893 
	C6.251873,85.667526 4.947531,84.610062 3.643190,83.552597 
	C3.413905,83.733498 3.184620,83.914398 2.955336,84.095299 
	C4.241078,86.300041 5.526820,88.504776 7.499681,90.888069 
M15.422898,76.986160 
	C13.505322,77.093163 11.587745,77.200165 9.300467,77.327797 
	C15.256756,82.036163 15.707963,81.923355 19.245169,74.943878 
	C17.965067,75.576637 16.966412,76.070274 15.422898,76.986160 
M13.304114,84.479042 
	C13.304114,84.479042 13.535852,84.587433 13.535852,84.587433 
	C13.535852,84.587433 13.487820,84.360474 13.304114,84.479042 
z"/>
<path fill="#473543" opacity="1.000000" stroke="none" 
	d="
M79.276169,96.008675 
	C78.132782,87.504829 76.555519,79.029404 75.995987,70.487312 
	C75.612236,64.628769 76.643684,58.677525 77.512329,52.367809 
	C78.645798,51.982948 79.309448,51.997990 79.947220,52.309166 
	C79.889557,52.999413 79.857788,53.393524 79.631577,54.130959 
	C79.669022,57.406944 77.266693,61.556213 82.986855,61.918869 
	C91.909439,62.484554 99.152016,66.494186 105.327988,73.312805 
	C105.647545,78.838173 105.824974,83.968140 105.590485,89.107086 
	C97.399323,87.235504 89.672569,85.766602 82.952759,91.973549 
	C82.983177,91.992569 82.978989,91.920944 82.732674,92.018463 
	C82.288696,92.400993 82.091026,92.686012 81.637451,93.108826 
	C80.679749,94.167313 79.977966,95.087997 79.276169,96.008675 
M86.067467,70.176208 
	C86.977524,69.650909 87.887589,69.125618 88.889862,68.547089 
	C86.490929,63.765980 84.340324,66.971184 81.759544,69.330963 
	C83.142494,69.800034 84.525444,70.269096 86.067467,70.176208 
z"/>
<path fill="#473542" opacity="1.000000" stroke="none" 
	d="
M67.798958,38.978100 
	C70.648911,46.801468 70.517441,54.828945 69.279037,62.887669 
	C68.256432,69.542137 67.024300,76.164406 65.450768,82.720108 
	C64.776512,82.381660 64.536491,82.124054 64.214279,81.616203 
	C64.046356,81.027603 63.960629,80.689247 63.911491,79.873367 
	C63.506123,74.572937 63.064163,69.750023 62.622208,64.927116 
	C61.985100,64.920189 61.347988,64.913269 60.710880,64.906342 
	C59.810261,68.887405 58.909637,72.868469 57.603111,76.775558 
	C51.427158,76.888359 45.657104,77.075142 39.875046,76.804924 
	C39.615318,73.561470 38.994980,70.743568 39.226780,67.997597 
	C39.449600,65.358109 39.807316,62.137733 41.406925,60.313663 
	C47.043839,53.885796 54.318851,50.229271 63.341183,49.944580 
	C64.128876,49.676853 64.617714,49.361694 65.409050,48.791061 
	C65.768837,46.678577 65.826134,44.821568 65.923233,42.604774 
	C65.300812,41.440544 64.638596,40.636089 64.222054,39.602730 
	C65.578140,39.241917 66.688545,39.110008 67.798958,38.978100 
z"/>
<path fill="#D81D2B" opacity="1.000000" stroke="none" 
	d="
M63.042336,49.897152 
	C54.318851,50.229271 47.043839,53.885796 41.406925,60.313663 
	C39.807316,62.137733 39.449600,65.358109 39.226780,67.997597 
	C38.994980,70.743568 39.615318,73.561470 39.727234,77.065063 
	C38.637619,78.347939 37.683811,78.913673 36.730000,79.479401 
	C37.028648,79.868340 37.327293,80.257286 37.625942,80.646233 
	C38.353455,80.490898 39.075356,80.298996 39.809410,80.186264 
	C44.029640,79.538132 48.241180,78.526360 52.478676,78.398117 
	C55.673119,78.301445 58.902050,79.344376 62.094032,79.856354 
	C62.072437,79.832649 62.136395,79.827911 62.131340,80.188431 
	C62.849678,80.988121 63.573074,81.427284 64.296471,81.866447 
	C64.536491,82.124054 64.776512,82.381660 65.102142,82.894096 
	C66.112320,87.149162 67.036880,91.149399 67.635345,95.298996 
	C65.513916,90.606445 64.718521,85.069481 58.447033,82.905373 
	C52.119247,79.041016 42.766769,80.565704 37.576691,86.200935 
	C36.196808,89.277702 35.078945,92.144608 33.740723,95.007973 
	C33.520355,95.004440 33.079659,94.995842 33.079659,94.995842 
	C33.056351,92.236702 33.033043,89.477570 33.331299,85.970879 
	C33.771000,83.252487 34.068775,81.273018 33.974491,79.312393 
	C33.657433,72.718964 33.210285,66.131653 32.792934,59.543262 
	C32.620815,56.826126 33.522011,55.006592 36.959129,54.888191 
	C40.379944,55.219517 42.505550,54.267551 43.362919,50.950310 
	C47.819157,48.947311 51.915802,46.986313 56.212563,45.275108 
	C57.274303,45.021687 58.135921,44.518471 59.392769,44.008926 
	C61.819805,43.656582 63.851612,43.310570 65.883423,42.964554 
	C65.826134,44.821568 65.768837,46.678577 65.109055,48.791252 
	C64.018494,49.330326 63.530418,49.613739 63.042336,49.897152 
z"/>
<path fill="#D2202F" opacity="1.000000" stroke="none" 
	d="
M79.155731,96.410706 
	C79.977966,95.087997 80.679749,94.167313 81.883850,93.010338 
	C82.583771,92.489677 82.781380,92.205307 82.978989,91.920944 
	C82.978989,91.920944 82.983177,91.992569 83.353668,91.986855 
	C91.930496,89.870903 100.134178,87.851852 108.439323,92.500633 
	C107.627014,91.366463 106.814713,90.232285 106.002403,89.098106 
	C105.824974,83.968140 105.647545,78.838173 105.573410,73.032715 
	C105.566231,69.498787 105.455757,66.640343 105.699677,63.808990 
	C113.096718,66.184158 114.044075,71.521652 113.023537,77.894104 
	C112.660919,80.158363 112.345863,82.458138 112.329376,84.744011 
	C112.297150,89.214363 112.490204,93.686348 112.589996,98.157654 
	C112.720139,100.151848 112.850288,102.146034 112.600380,104.564423 
	C111.831718,104.996124 111.443108,105.003624 111.003311,104.666130 
	C110.014458,102.544945 109.076797,100.768753 107.970863,98.683990 
	C105.220100,96.804413 102.637604,95.233421 99.846924,93.480026 
	C99.094475,93.223152 98.550224,93.148674 97.641426,92.974915 
	C96.642937,92.691048 96.005630,92.336830 95.375580,92.349304 
	C91.150253,92.432953 87.526405,92.886063 85.794930,98.009071 
	C84.039780,103.202148 81.086319,107.990227 78.491394,112.714783 
	C78.230003,111.705093 78.134918,110.936325 78.039825,110.167549 
	C78.371643,105.715942 78.703461,101.264343 79.155731,96.410706 
z"/>
<path fill="#32232D" opacity="1.000000" stroke="none" 
	d="
M67.879410,111.002296 
	C68.427216,114.716019 69.268257,118.415100 69.454498,122.146866 
	C69.737686,127.821449 65.555336,130.406662 60.908882,132.836029 
	C60.533745,132.908432 60.393711,132.989502 60.393711,132.989502 
	C55.009171,132.968613 49.612034,133.134583 44.250431,132.773300 
	C43.143440,132.698700 41.754539,130.827774 41.215786,129.493896 
	C39.930782,126.312393 39.075794,122.957222 38.318924,119.293922 
	C38.590714,118.915657 39.012409,118.922134 39.202423,119.059807 
	C39.392433,119.197479 39.861515,119.211540 39.897953,119.195244 
	C39.934391,119.178947 39.872505,119.128517 40.008839,119.415962 
	C40.624710,119.514893 41.104252,119.326385 41.493080,119.094536 
	C41.402374,119.051201 41.319794,119.234512 41.341095,119.636444 
	C50.679375,126.837883 64.128151,122.209099 67.321579,111.125656 
	C67.507317,111.083603 67.879410,111.002296 67.879410,111.002296 
z"/>
<path fill="#31232D" opacity="1.000000" stroke="none" 
	d="
M76.755013,127.942886 
	C76.963463,127.001610 77.171913,126.060326 77.935120,125.030106 
	C78.489876,124.941154 78.940804,125.073410 79.014755,125.412865 
	C82.495033,135.187500 98.183426,137.554779 105.258209,131.934906 
	C105.987381,131.587631 106.448441,131.298721 106.909492,131.009811 
	C106.914696,132.383881 106.919891,133.757950 106.673218,135.757263 
	C106.249359,137.221161 106.077393,138.059830 105.905418,138.898483 
	C100.359505,148.746536 85.022324,148.629593 76.892639,137.969971 
	C76.733841,134.155212 76.744431,131.049057 76.755013,127.942886 
z"/>
<path fill="#32232E" opacity="1.000000" stroke="none" 
	d="
M67.794464,38.632904 
	C66.688545,39.110008 65.578140,39.241917 63.818256,39.663681 
	C57.190437,42.016964 51.212090,44.080399 44.860031,46.106880 
	C42.834721,46.184063 41.164131,46.179356 39.535866,46.439533 
	C36.946331,46.853321 34.385021,47.443768 31.811773,47.959488 
	C35.649921,37.087288 45.373646,34.168453 54.870461,31.043657 
	C56.502728,30.506582 58.393127,30.754017 60.789009,30.807957 
	C61.917797,31.034334 62.421867,31.091808 62.925934,31.149281 
	C64.547279,33.528755 66.168625,35.908230 67.794464,38.632904 
z"/>
<path fill="#33252F" opacity="1.000000" stroke="none" 
	d="
M79.973106,52.013031 
	C79.309448,51.997990 78.645798,51.982948 77.650162,51.970520 
	C76.817726,46.973701 83.077431,41.093430 88.329895,42.356003 
	C98.804588,44.873875 108.561798,48.830853 113.510025,59.633312 
	C107.452309,57.812355 101.768112,55.645096 95.870354,53.396412 
	C95.763130,53.629978 95.360573,54.506855 94.587173,55.257538 
	C89.468582,54.091908 84.720840,53.052467 79.973106,52.013031 
z"/>
<path fill="#4F3A47" opacity="1.000000" stroke="none" 
	d="
M94.958023,55.383728 
	C95.360573,54.506855 95.763130,53.629978 95.870354,53.396412 
	C101.768112,55.645096 107.452309,57.812355 113.500504,59.981346 
	C117.666199,68.550766 115.320076,77.313293 114.594452,85.999413 
	C114.277489,89.793709 113.453896,93.545685 112.725189,97.737267 
	C112.490204,93.686348 112.297150,89.214363 112.329376,84.744011 
	C112.345863,82.458138 112.660919,80.158363 113.023537,77.894104 
	C114.044075,71.521652 113.096718,66.184158 105.663483,63.791367 
	C105.272896,63.746655 105.192467,63.743141 105.241257,63.478477 
	C104.971886,62.791302 104.653732,62.368790 104.135101,61.660229 
	C100.942421,59.377361 97.950226,57.380543 94.958023,55.383728 
z"/>
<path fill="#DA2C3A" opacity="1.000000" stroke="none" 
	d="
M106.967590,130.654114 
	C106.448441,131.298721 105.987381,131.587631 105.002182,131.653488 
	C94.691971,133.389740 86.428284,130.131622 78.857765,123.765137 
	C78.205994,123.357674 77.700294,123.182396 77.194588,123.007126 
	C77.246040,122.291046 77.297493,121.574974 77.766159,120.677956 
	C78.942940,120.475952 79.702492,120.454895 80.443054,120.526443 
	C80.424057,120.619064 80.319931,120.766655 80.253395,121.130997 
	C80.906624,121.956238 81.626389,122.417145 82.624359,123.053970 
	C84.635002,124.468895 86.251640,125.928360 88.119545,126.909401 
	C97.021065,131.584549 104.123703,129.471588 108.473129,120.837143 
	C109.187775,117.748604 109.670029,114.889206 110.443283,111.842590 
	C110.841019,109.440636 110.947762,107.225876 111.054504,105.011124 
	C111.443108,105.003624 111.831718,104.996124 112.511826,104.985672 
	C112.421684,110.820526 112.466881,116.732201 111.474785,122.464348 
	C110.992828,125.248970 108.569916,127.697662 106.967590,130.654114 
z"/>
<path fill="#4E3744" opacity="1.000000" stroke="none" 
	d="
M31.506395,48.199303 
	C34.385021,47.443768 36.946331,46.853321 39.535866,46.439533 
	C41.164131,46.179356 42.834721,46.184063 44.691513,46.376991 
	C43.945896,47.527901 42.995094,48.371750 41.741196,49.324986 
	C39.803455,51.238556 38.168808,53.042736 36.534157,54.846920 
	C33.522011,55.006592 32.620815,56.826126 32.792934,59.543262 
	C33.210285,66.131653 33.657433,72.718964 33.974491,79.312393 
	C34.068775,81.273018 33.771000,83.252487 33.380203,85.509323 
	C30.775669,73.429825 28.055397,61.084160 31.506395,48.199303 
z"/>
<path fill="#B1DADC" opacity="1.000000" stroke="none" 
	d="
M135.184723,90.132187 
	C132.221878,88.003975 129.332092,89.652992 127.382233,94.309792 
	C126.416275,92.680367 125.513237,91.157074 124.726898,89.830627 
	C127.384468,88.641724 129.963425,87.487991 133.522141,85.895958 
	C130.598419,83.590820 128.415390,81.869667 126.232361,80.148514 
	C132.164917,80.899529 137.851242,85.327454 144.059341,79.251785 
	C138.160568,83.584877 137.152313,89.221611 137.988434,95.556244 
	C137.582870,95.561981 137.177292,95.567719 136.771729,95.573456 
	C136.277283,93.880287 135.782852,92.187126 135.184723,90.132187 
z"/>
<path fill="#D92734" opacity="1.000000" stroke="none" 
	d="
M41.319794,119.234512 
	C41.319794,119.234512 41.402374,119.051201 41.064827,119.074425 
	C40.442348,119.107941 40.157425,119.118225 39.872505,119.128517 
	C39.872505,119.128517 39.934391,119.178947 39.883614,118.999023 
	C39.559361,118.853447 39.285885,118.887787 39.012409,118.922134 
	C39.012409,118.922134 38.590714,118.915657 38.380764,118.896088 
	C32.501408,112.115204 32.880585,103.988075 33.033630,95.459122 
	C33.079659,94.995842 33.520355,95.004440 33.755638,95.410507 
	C34.351170,97.508705 34.711426,99.200829 35.221798,101.254829 
	C36.571999,105.074638 37.772076,108.532570 39.100868,112.312317 
	C42.492222,114.441261 45.754860,116.248405 48.935524,118.420074 
	C46.342300,118.934570 43.831047,119.084541 41.319794,119.234512 
z"/>
<path fill="#BD1A2E" opacity="1.000000" stroke="none" 
	d="
M67.924973,110.538040 
	C67.879410,111.002296 67.507317,111.083603 67.252892,110.836899 
	C66.937592,110.440117 66.907997,110.262260 66.806633,110.148163 
	C66.714020,110.043907 66.505356,109.917862 66.413467,109.956703 
	C65.155518,110.488403 63.908955,111.047066 62.775887,111.290192 
	C63.896523,108.995506 64.900864,107.009727 66.088844,104.677475 
	C68.183022,99.517204 65.711288,95.906349 63.225368,92.108170 
	C61.406429,89.329063 60.217026,86.137924 58.747025,83.130440 
	C64.718521,85.069481 65.513916,90.606445 67.533844,95.711151 
	C67.829132,100.673889 67.899834,105.373833 67.924973,110.538040 
z"/>
<path fill="#B8DADD" opacity="1.000000" stroke="none" 
	d="
M76.513229,127.710899 
	C76.744431,131.049057 76.733841,134.155212 76.757988,137.650940 
	C75.952545,144.134613 75.112373,150.228729 74.272202,156.322861 
	C74.015114,156.386902 73.758026,156.450943 73.500938,156.514999 
	C73.344734,155.119324 73.011864,153.717316 73.061531,152.328995 
	C73.344147,144.430176 73.703621,136.533966 74.073723,128.638565 
	C74.143669,127.146324 74.135254,125.196449 76.513229,127.710899 
z"/>
<path fill="#B8DDE0" opacity="1.000000" stroke="none" 
	d="
M75.051208,33.226791 
	C74.991318,23.177294 74.991318,13.544912 74.991318,3.912529 
	C75.671402,3.902431 76.351494,3.892333 77.031578,3.882235 
	C77.031578,7.335593 77.036652,10.788960 77.030434,14.242307 
	C77.020004,20.038160 77.064659,25.835712 76.905342,31.627579 
	C76.886414,32.315620 75.736664,32.972557 75.051208,33.226791 
z"/>
<path fill="#41353E" opacity="1.000000" stroke="none" 
	d="
M60.461239,133.490387 
	C60.393711,132.989502 60.533745,132.908432 60.558292,132.923676 
	C61.188313,133.460648 62.064369,134.553894 62.357174,134.415253 
	C65.115784,133.109146 67.774879,131.592850 70.546051,130.092056 
	C70.209976,134.831070 62.753956,139.076233 54.719685,138.677826 
	C57.014771,136.826233 58.771767,135.408752 60.461239,133.490387 
z"/>
<path fill="#B4DBDD" opacity="1.000000" stroke="none" 
	d="
M113.299728,16.425781 
	C109.273682,24.503323 105.409004,32.263069 101.544319,40.022816 
	C101.025154,39.760574 100.505989,39.498337 99.986816,39.236095 
	C104.245247,30.647270 108.503670,22.058445 112.762100,13.469620 
	C113.068115,13.554127 113.374138,13.638634 113.680161,13.723141 
	C113.607140,14.518088 113.534119,15.313037 113.299728,16.425781 
z"/>
<path fill="#41343D" opacity="1.000000" stroke="none" 
	d="
M25.403828,54.866680 
	C25.662277,51.326340 25.875391,48.032658 26.727732,44.913658 
	C27.099279,43.554035 28.781683,42.552639 29.868765,41.388557 
	C30.174927,41.705364 30.481091,42.022175 30.787252,42.338982 
	C29.791597,46.063278 28.879791,49.813854 27.727901,53.489185 
	C27.503754,54.204380 26.345428,54.626793 25.403828,54.866680 
z"/>
<path fill="#41353E" opacity="1.000000" stroke="none" 
	d="
M121.049744,60.084724 
	C121.531776,63.286533 121.878220,66.084244 122.294968,69.449699 
	C117.297249,67.349075 116.296425,64.017365 118.073883,57.261276 
	C119.188858,58.211018 120.051506,58.945824 121.049744,60.084724 
z"/>
<path fill="#564A52" opacity="1.000000" stroke="none" 
	d="
M79.096237,43.127041 
	C77.896744,44.380177 77.028839,45.474945 75.126595,47.874424 
	C75.126595,45.418797 74.659706,43.826233 75.211296,42.761093 
	C77.111450,39.091824 80.505203,37.907532 84.356377,39.533978 
	C82.570610,40.778469 80.999214,41.873573 79.096237,43.127041 
z"/>
<path fill="#B7DADB" opacity="1.000000" stroke="none" 
	d="
M62.956173,30.734921 
	C62.421867,31.091808 61.917797,31.034334 61.198807,30.842392 
	C59.620193,24.696169 58.256504,18.684412 56.892811,12.672656 
	C57.424412,12.534498 57.956013,12.396340 58.487610,12.258182 
	C59.987209,18.278975 61.486809,24.299765 62.956173,30.734921 
z"/>
<path fill="#B6DCDE" opacity="1.000000" stroke="none" 
	d="
M92.781555,20.078766 
	C91.908737,25.520662 90.848885,30.657562 89.789032,35.794464 
	C89.073479,35.611378 88.357925,35.428288 87.642372,35.245201 
	C89.293091,30.088057 90.943802,24.930914 92.781555,20.078766 
z"/>
<path fill="#B3DADC" opacity="1.000000" stroke="none" 
	d="
M7.156122,90.798790 
	C5.526820,88.504776 4.241078,86.300041 2.955336,84.095299 
	C3.184620,83.914398 3.413905,83.733498 3.643190,83.552597 
	C4.947531,84.610062 6.251873,85.667526 7.707797,86.847893 
	C8.899241,86.309624 10.134622,85.751511 11.370001,85.193398 
	C11.655859,85.515442 11.941716,85.837486 12.227574,86.159531 
	C10.651609,87.735710 9.075645,89.311890 7.156122,90.798790 
z"/>
<path fill="#B4D9DB" opacity="1.000000" stroke="none" 
	d="
M106.211426,139.082855 
	C106.077393,138.059830 106.249359,137.221161 106.672699,136.175797 
	C108.826477,139.958298 110.728905,143.947525 112.631325,147.936737 
	C112.114906,148.166367 111.598480,148.396011 111.082054,148.625641 
	C109.560516,145.506165 108.038979,142.386688 106.211426,139.082855 
z"/>
<path fill="#B0D9DB" opacity="1.000000" stroke="none" 
	d="
M15.695328,76.775040 
	C16.966412,76.070274 17.965067,75.576637 19.245169,74.943878 
	C15.707963,81.923355 15.256756,82.036163 9.300467,77.327797 
	C11.587745,77.200165 13.505322,77.093163 15.695328,76.775040 
z"/>
<path fill="#D2202F" opacity="1.000000" stroke="none" 
	d="
M80.462051,120.433830 
	C79.702492,120.454895 78.942940,120.475952 77.919899,120.349792 
	C77.614769,118.696312 77.573120,117.190071 77.772835,115.148056 
	C78.200394,114.379288 78.423592,114.190392 78.786934,114.055161 
	C78.890068,114.064713 79.096840,114.052132 79.048141,114.423553 
	C79.486977,116.674599 79.974518,118.554214 80.462051,120.433830 
z"/>
<path fill="#DA2C3A" opacity="1.000000" stroke="none" 
	d="
M78.683800,114.045601 
	C78.423592,114.190392 78.200394,114.379288 77.912758,114.718491 
	C77.789032,113.475945 77.766762,112.127213 77.892159,110.473007 
	C78.134918,110.936325 78.230003,111.705093 78.557373,112.986313 
	C78.754364,113.681030 78.719086,113.863312 78.683800,114.045601 
z"/>
<path fill="#D2202F" opacity="1.000000" stroke="none" 
	d="
M77.161942,123.270615 
	C77.700294,123.182396 78.205994,123.357674 78.844284,124.034309 
	C78.964859,124.714912 78.952835,124.894157 78.940804,125.073410 
	C78.940804,125.073410 78.489876,124.941154 78.266586,124.869614 
	C77.738632,124.376747 77.433968,123.955429 77.161942,123.270615 
z"/>
<path fill="#B3DADC" opacity="1.000000" stroke="none" 
	d="
M13.395967,84.419754 
	C13.487820,84.360474 13.535852,84.587433 13.535852,84.587433 
	C13.535852,84.587433 13.304114,84.479042 13.395967,84.419754 
z"/>
<path fill="#D61E2D" opacity="1.000000" stroke="none" 
	d="
M105.309090,63.764278 
	C105.455757,66.640343 105.566231,69.498787 105.431290,72.637314 
	C99.152016,66.494186 91.909439,62.484554 82.986855,61.918869 
	C77.266693,61.556213 79.669022,57.406944 79.884575,54.443558 
	C87.890411,56.968353 95.448807,59.523872 103.057739,62.401627 
	C103.803009,63.063622 104.497734,63.403381 105.192467,63.743141 
	C105.192467,63.743141 105.272896,63.746655 105.309090,63.764278 
z"/>
<path fill="#E13146" opacity="1.000000" stroke="none" 
	d="
M103.007202,62.079395 
	C95.448807,59.523872 87.890411,56.968353 80.079010,54.100231 
	C79.857788,53.393524 79.889557,52.999413 79.947220,52.309166 
	C84.720840,53.052467 89.468582,54.091908 94.587173,55.257538 
	C97.950226,57.380543 100.942421,59.377361 103.801498,61.688728 
	C103.447975,62.028648 103.227592,62.054024 103.007202,62.079395 
z"/>
<path fill="#DF3044" opacity="1.000000" stroke="none" 
	d="
M105.590485,89.107086 
	C106.814713,90.232285 107.627014,91.366463 108.439323,92.500633 
	C100.134178,87.851852 91.930496,89.870903 83.323257,91.967834 
	C89.672569,85.766602 97.399323,87.235504 105.590485,89.107086 
z"/>
<path fill="#3B2B37" opacity="1.000000" stroke="none" 
	d="
M85.987930,70.457184 
	C84.525444,70.269096 83.142494,69.800034 81.759544,69.330963 
	C84.340324,66.971184 86.490929,63.765980 88.889862,68.547089 
	C87.887589,69.125618 86.977524,69.650909 85.987930,70.457184 
z"/>
<path fill="#DF3044" opacity="1.000000" stroke="none" 
	d="
M82.732674,92.018463 
	C82.781380,92.205307 82.583771,92.489677 82.139755,92.872528 
	C82.091026,92.686012 82.288696,92.400993 82.732674,92.018463 
z"/>
<path fill="#E23146" opacity="1.000000" stroke="none" 
	d="
M42.044289,49.215599 
	C42.995094,48.371750 43.945896,47.527901 45.065220,46.413940 
	C51.212090,44.080399 57.190437,42.016964 63.572586,39.892582 
	C64.638596,40.636089 65.300812,41.440544 65.923225,42.604778 
	C63.851612,43.310570 61.819805,43.656582 59.224213,43.813465 
	C57.777767,44.091328 56.895107,44.558319 56.012444,45.025314 
	C51.915802,46.986313 47.819157,48.947311 43.267700,50.714760 
	C42.556690,50.086006 42.300491,49.650803 42.044289,49.215599 
M49.418343,46.489796 
	C49.418343,46.489796 49.526840,46.425716 49.418343,46.489796 
z"/>
<path fill="#392834" opacity="1.000000" stroke="none" 
	d="
M58.009014,76.849533 
	C58.909637,72.868469 59.810261,68.887405 60.710880,64.906342 
	C61.347988,64.913269 61.985100,64.920189 62.622208,64.927116 
	C63.064163,69.750023 63.506123,74.572937 63.628208,79.756615 
	C62.917686,80.020897 62.527042,79.924400 62.136395,79.827911 
	C62.136395,79.827911 62.072437,79.832649 61.991730,79.542984 
	C60.610352,78.452057 59.309685,77.650795 58.009014,76.849533 
z"/>
<path fill="#E03044" opacity="1.000000" stroke="none" 
	d="
M57.603111,76.775558 
	C59.309685,77.650795 60.610352,78.452057 62.013329,79.566696 
	C58.902050,79.344376 55.673119,78.301445 52.478676,78.398117 
	C48.241180,78.526360 44.029640,79.538132 39.809410,80.186264 
	C39.075356,80.298996 38.353455,80.490898 37.625942,80.646233 
	C37.327293,80.257286 37.028648,79.868340 36.730000,79.479401 
	C37.683811,78.913673 38.637619,78.347939 39.739243,77.522064 
	C45.657104,77.075142 51.427158,76.888359 57.603111,76.775558 
z"/>
<path fill="#E03044" opacity="1.000000" stroke="none" 
	d="
M62.131340,80.188431 
	C62.527042,79.924400 62.917686,80.020897 63.591618,80.234138 
	C63.960629,80.689247 64.046356,81.027603 64.214279,81.616203 
	C63.573074,81.427284 62.849678,80.988121 62.131340,80.188431 
z"/>
<path fill="#D71D2D" opacity="1.000000" stroke="none" 
	d="
M63.341183,49.944580 
	C63.530418,49.613739 64.018494,49.330326 64.806564,49.046722 
	C64.617714,49.361694 64.128876,49.676853 63.341183,49.944580 
z"/>
<path fill="#463340" opacity="1.000000" stroke="none" 
	d="
M58.447033,82.905373 
	C60.217026,86.137924 61.406429,89.329063 63.225368,92.108170 
	C65.711288,95.906349 68.183022,99.517204 65.692062,104.671555 
	C61.485153,104.281441 58.828381,108.883995 54.544785,106.677940 
	C53.500057,106.139900 50.625229,109.482788 48.416412,110.730751 
	C47.409046,111.299911 45.475925,111.710304 44.824493,111.164368 
	C42.454773,109.178406 41.085880,109.202606 38.972153,111.990509 
	C37.772076,108.532570 36.571999,105.074638 35.376114,100.932533 
	C36.199780,95.495934 37.019245,90.743507 37.838711,85.991074 
	C42.766769,80.565704 52.119247,79.041016 58.447033,82.905373 
z"/>
<path fill="#AA142C" opacity="1.000000" stroke="none" 
	d="
M37.576691,86.200935 
	C37.019245,90.743507 36.199780,95.495934 35.225998,100.570663 
	C34.711426,99.200829 34.351170,97.508705 33.976002,95.414040 
	C35.078945,92.144608 36.196808,89.277702 37.576691,86.200935 
z"/>
<path fill="#D71D2D" opacity="1.000000" stroke="none" 
	d="
M41.741199,49.324989 
	C42.300491,49.650803 42.556690,50.086006 42.908108,50.756756 
	C42.505550,54.267551 40.379944,55.219517 36.959129,54.888191 
	C38.168808,53.042736 39.803455,51.238556 41.741199,49.324989 
z"/>
<path fill="#D71D2D" opacity="1.000000" stroke="none" 
	d="
M56.212563,45.275108 
	C56.895107,44.558319 57.777767,44.091328 58.828983,43.819794 
	C58.135921,44.518471 57.274303,45.021687 56.212563,45.275108 
z"/>
<path fill="#453340" opacity="1.000000" stroke="none" 
	d="
M78.786934,114.055161 
	C78.719086,113.863312 78.754364,113.681030 78.723679,113.227219 
	C81.086319,107.990227 84.039780,103.202148 85.794930,98.009071 
	C87.526405,92.886063 91.150253,92.432953 95.375580,92.349304 
	C96.005630,92.336830 96.642937,92.691048 97.626022,93.384033 
	C97.290871,98.640862 96.606575,103.389282 95.922279,108.137711 
	C96.338692,108.202164 96.755112,108.266624 97.171532,108.331085 
	C98.132729,103.441528 99.093925,98.551979 100.055115,93.662422 
	C102.637604,95.233421 105.220100,96.804413 107.921890,99.123154 
	C108.744888,103.923866 109.448586,107.976830 110.152283,112.029800 
	C109.670029,114.889206 109.187775,117.748604 108.095520,120.812630 
	C105.847549,121.096252 104.200096,121.093346 102.574791,121.281639 
	C101.394180,121.418411 100.052162,122.336540 99.110382,121.996666 
	C94.117233,120.194687 89.229080,118.102081 84.301949,116.116638 
	C82.570717,115.419014 80.832092,114.739761 79.096840,114.052132 
	C79.096840,114.052132 78.890068,114.064713 78.786934,114.055161 
M92.412971,116.487556 
	C92.412971,116.487556 92.523392,116.420975 92.412971,116.487556 
z"/>
<path fill="#AB132C" opacity="1.000000" stroke="none" 
	d="
M110.443283,111.842590 
	C109.448586,107.976830 108.744888,103.923866 108.090164,99.431732 
	C109.076797,100.768753 110.014458,102.544945 111.003311,104.666130 
	C110.947762,107.225876 110.841019,109.440636 110.443283,111.842590 
z"/>
<path fill="#685062" opacity="1.000000" stroke="none" 
	d="
M99.846924,93.480026 
	C99.093925,98.551979 98.132729,103.441528 97.171532,108.331085 
	C96.755112,108.266624 96.338692,108.202164 95.922279,108.137711 
	C96.606575,103.389282 97.290871,98.640862 97.990570,93.483322 
	C98.550224,93.148674 99.094475,93.223152 99.846924,93.480026 
z"/>
<path fill="#E13145" opacity="1.000000" stroke="none" 
	d="
M62.659592,111.599098 
	C63.908955,111.047066 65.155518,110.488403 66.413467,109.956703 
	C66.505356,109.917862 66.714020,110.043907 66.806633,110.148163 
	C66.907997,110.262260 66.937592,110.440117 67.067154,110.878944 
	C64.128151,122.209099 50.679375,126.837883 41.341095,119.636444 
	C43.831047,119.084541 46.342300,118.934570 49.329651,118.395584 
	C53.143776,116.627487 56.481808,115.248405 60.113380,113.990746 
	C61.164528,113.326721 61.922138,112.541267 62.674202,111.716705 
	C62.668648,111.677589 62.659592,111.599098 62.659592,111.599098 
z"/>
<path fill="#E13145" opacity="1.000000" stroke="none" 
	d="
M40.008839,119.415962 
	C40.157425,119.118225 40.442348,119.107941 41.155533,119.117760 
	C41.104252,119.326385 40.624710,119.514893 40.008839,119.415962 
z"/>
<path fill="#E13145" opacity="1.000000" stroke="none" 
	d="
M39.202423,119.059799 
	C39.285885,118.887787 39.559361,118.853447 39.847176,119.015320 
	C39.861515,119.211540 39.392433,119.197479 39.202423,119.059799 
z"/>
<path fill="#DF3347" opacity="1.000000" stroke="none" 
	d="
M79.014755,125.412865 
	C78.952835,124.894157 78.964859,124.714912 78.990356,124.266495 
	C86.428284,130.131622 94.691971,133.389740 104.734070,131.711853 
	C98.183426,137.554779 82.495033,135.187500 79.014755,125.412865 
z"/>
<path fill="#D2202F" opacity="1.000000" stroke="none" 
	d="
M103.057739,62.401627 
	C103.227592,62.054024 103.447975,62.028648 104.001968,61.974777 
	C104.653732,62.368790 104.971886,62.791302 105.241257,63.478477 
	C104.497734,63.403381 103.803009,63.063622 103.057739,62.401627 
z"/>
<path fill="#33202A" opacity="1.000000" stroke="none" 
	d="
M79.048141,114.423553 
	C80.832092,114.739761 82.570717,115.419014 84.301949,116.116638 
	C89.229080,118.102081 94.117233,120.194687 99.110382,121.996666 
	C100.052162,122.336540 101.394180,121.418411 102.574791,121.281639 
	C104.200096,121.093346 105.847549,121.096252 107.863129,121.041763 
	C104.123703,129.471588 97.021065,131.584549 88.119545,126.909401 
	C86.251640,125.928360 84.635002,124.468895 82.505844,122.759399 
	C81.512718,121.781494 80.916328,121.274071 80.319931,120.766655 
	C80.319931,120.766655 80.424057,120.619064 80.443054,120.526443 
	C79.974518,118.554214 79.486977,116.674599 79.048141,114.423553 
z"/>
<path fill="#D2202F" opacity="1.000000" stroke="none" 
	d="
M80.253395,121.130997 
	C80.916328,121.274071 81.512718,121.781494 82.227631,122.583481 
	C81.626389,122.417145 80.906624,121.956238 80.253395,121.130997 
z"/>
<path fill="#31202A" opacity="1.000000" stroke="none" 
	d="
M59.819839,113.869324 
	C56.481808,115.248405 53.143776,116.627487 49.411621,118.031052 
	C45.754860,116.248405 42.492222,114.441261 39.100868,112.312317 
	C41.085880,109.202606 42.454773,109.178406 44.824493,111.164368 
	C45.475925,111.710304 47.409046,111.299911 48.416412,110.730751 
	C50.625229,109.482788 53.500057,106.139900 54.544785,106.677940 
	C58.828381,108.883995 61.485153,104.281441 65.508423,105.018021 
	C64.900864,107.009727 63.896523,108.995506 62.775887,111.290192 
	C62.659592,111.599098 62.668648,111.677589 62.380257,111.777252 
	C61.334518,112.541054 60.577179,113.205185 59.819839,113.869324 
z"/>
<path fill="#D81D2B" opacity="1.000000" stroke="none" 
	d="
M49.472591,46.457756 
	C49.526840,46.425716 49.418343,46.489796 49.472591,46.457756 
z"/>
<path fill="#33202A" opacity="1.000000" stroke="none" 
	d="
M92.468185,116.454269 
	C92.523392,116.420975 92.412971,116.487556 92.468185,116.454269 
z"/>
<path fill="#BD1A2E" opacity="1.000000" stroke="none" 
	d="
M60.113380,113.990738 
	C60.577179,113.205185 61.334518,112.541054 62.385807,111.816368 
	C61.922138,112.541267 61.164528,113.326721 60.113380,113.990738 
z"/>
</svg>