<svg width="64" height="64" viewBox="0 0 64 64" fill="none" xmlns="http://www.w3.org/2000/svg">
<path d="M33.52 60.3201C44.7977 60.3201 53.94 51.1778 53.94 39.9001C53.94 28.6224 44.7977 19.4801 33.52 19.4801C22.2424 19.4801 13.1 28.6224 13.1 39.9001C13.1 51.1778 22.2424 60.3201 33.52 60.3201Z" stroke="#FE572E" stroke-width="3" stroke-linecap="round"/>
<path d="M33.65 27.9101L37.29 35.2901C37.2989 35.3097 37.3128 35.3265 37.3304 35.3388C37.348 35.3511 37.3686 35.3585 37.39 35.3601L45.54 36.5501C45.5656 36.5526 45.59 36.5626 45.6099 36.5789C45.6299 36.5952 45.6445 36.617 45.652 36.6417C45.6595 36.6663 45.6595 36.6926 45.652 36.7173C45.6446 36.7419 45.6299 36.7638 45.61 36.7801L39.72 42.5201C39.7084 42.538 39.7022 42.5588 39.7022 42.5801C39.7022 42.6014 39.7084 42.6223 39.72 42.6401L41.11 50.7601C41.1124 50.7849 41.1083 50.8098 41.0979 50.8324C41.0875 50.855 41.0713 50.8744 41.051 50.8887C41.0306 50.9029 41.0068 50.9115 40.982 50.9135C40.9573 50.9155 40.9324 50.9109 40.91 50.9001L33.63 47.0701C33.6097 47.0604 33.5875 47.0553 33.565 47.0553C33.5425 47.0553 33.5203 47.0604 33.5 47.0701L26.18 50.9001C26.1576 50.9109 26.1327 50.9155 26.1079 50.9135C26.0832 50.9115 26.0594 50.9029 26.039 50.8887C26.0187 50.8744 26.0025 50.855 25.9921 50.8324C25.9817 50.8098 25.9775 50.7849 25.98 50.7601L27.37 42.6401C27.3789 42.6214 27.3835 42.6009 27.3835 42.5801C27.3835 42.5594 27.3789 42.5389 27.37 42.5201L21.48 36.7801C21.4601 36.7638 21.4454 36.7419 21.4379 36.7173C21.4305 36.6926 21.4305 36.6663 21.438 36.6417C21.4455 36.617 21.4601 36.5952 21.4801 36.5789C21.5 36.5626 21.5243 36.5526 21.55 36.5501L29.7 35.3601C29.7214 35.3585 29.742 35.3511 29.7596 35.3388C29.7771 35.3265 29.7911 35.3097 29.8 35.2901L33.44 27.9101C33.4531 27.8952 33.4693 27.8833 33.4874 27.8751C33.5055 27.867 33.5251 27.8627 33.545 27.8627C33.5649 27.8627 33.5845 27.867 33.6026 27.8751C33.6207 27.8833 33.6369 27.8952 33.65 27.9101V27.9101Z" stroke="#FE572E" stroke-width="3" stroke-linecap="round"/>
<path d="M21.48 23.7501L9.89001 3.6701H19.97L29.04 19.3801L19.97 3.6701" stroke="#FE572E" stroke-width="3"/>
<path d="M44.82 22.8901L55.92 3.6701H45.79L36.77 19.3801" stroke="#FE572E" stroke-width="3" stroke-linecap="round"/>
</svg>
